
<svg version="1.1" xmlns="http://www.w3.org/2000/svg" width="879" height="903" viewBox="0 0 879 903" preserveAspectRatio="xMidYMid meet">
<path d="M0 0 C290.07 0 580.14 0 879 0 C879 297.99 879 595.98 879 903 C588.93 903 298.86 903 0 903 C0 605.01 0 307.02 0 0 Z " fill="#FEFEFE" transform="translate(0,0)" />
<path d="M0 0 C0.99 0.33 1.98 0.66 3 1 C4.12532262 4.85407254 5.25020008 8.70827488 6.375 12.5625 C6.69210937 13.64853516 7.00921875 14.73457031 7.3359375 15.85351562 C10.17698698 25.59002896 12.94800962 35.34201482 15.625 45.125 C15.94984375 46.29160156 16.2746875 47.45820313 16.609375 48.66015625 C16.91617188 49.78550781 17.22296875 50.91085938 17.5390625 52.0703125 C17.81959473 53.08883301 18.10012695 54.10735352 18.38916016 55.15673828 C18.9725817 57.87237671 19.11861454 60.23380748 19 63 C19.66 63 20.32 63 21 63 C21.30292969 64.12535156 21.60585938 65.25070313 21.91796875 66.41015625 C24.29909858 75.16687878 26.87422455 83.78668388 29.796875 92.37890625 C35 108.03896104 35 108.03896104 35 114 C35.66 114 36.32 114 37 114 C38.00574701 117.9360551 39.00361005 121.87406674 40 125.8125 C40.28617188 126.93205078 40.57234375 128.05160156 40.8671875 129.20507812 C41.13789063 130.27822266 41.40859375 131.35136719 41.6875 132.45703125 C41.93886719 133.44678955 42.19023437 134.43654785 42.44921875 135.45629883 C43 138 43 138 43 141 C43.66 141 44.32 141 45 141 C45.27263672 142.34191406 45.27263672 142.34191406 45.55078125 143.7109375 C46.9107338 150.25265797 48.36746859 156.65971186 50.44921875 163.01171875 C51 165 51 165 51 168 C51.66 168 52.32 168 53 168 C53.20979492 168.75990234 53.41958984 169.51980469 53.63574219 170.30273438 C59.42128434 191.20013745 65.53273069 211.98751347 71.811203 232.741745 C73.44436312 238.14452563 75.05852784 243.55263912 76.66015625 248.96484375 C77.26958756 251.01867153 77.87927979 253.0724217 78.48901367 255.12615967 C79.0442216 257.00078415 79.59542168 258.87659421 80.14648438 260.75244141 C81.4545069 265.14969053 82.73700419 269.39914572 84.578125 273.60546875 C86.56891371 278.35820335 87.5907363 283.22675598 88.6875 288.25 C88.91244141 289.24257813 89.13738281 290.23515625 89.36914062 291.2578125 C91 298.5743731 91 298.5743731 91 302 C91.66 302 92.32 302 93 302 C99 320.58252427 99 320.58252427 99 329 C99.66 329 100.32 329 101 329 C101.67449966 331.39387157 102.33976641 333.78969221 103 336.1875 C103.19078125 336.86103516 103.3815625 337.53457031 103.578125 338.22851562 C104.5825836 341.90555156 105.23704741 345.1850182 105 349 C105.66 349 106.32 349 107 349 C109.59782302 357.72574404 112.18880545 366.45348194 114.77121639 375.18379974 C115.97070416 379.23811165 117.17248558 383.29171318 118.37963867 387.34375 C119.54577301 391.25841531 120.70571227 395.17486842 121.86148262 399.09260559 C122.30222622 400.58267227 122.74515151 402.07209551 123.19035149 403.56083679 C123.81630356 405.6554023 124.43426903 407.75217738 125.05053711 409.84960938 C125.40361435 411.03985718 125.75669159 412.23010498 126.12046814 413.4564209 C127.08070076 417.32513832 127.57850756 421.03974319 128 425 C125.69 425 123.38 425 121 425 C120.80889648 424.34104736 120.61779297 423.68209473 120.42089844 423.00317383 C119.53167235 419.93930309 118.64096009 416.87586694 117.75 413.8125 C117.431521 412.71583008 117.11304199 411.61916016 116.78491211 410.48925781 C114.82401369 403.75791959 112.80510163 397.05579245 110.62890625 390.390625 C110 388 110 388 110 384 C109.34 384 108.68 384 108 384 C105.68539536 375.04495196 103.47185114 366.14097026 102 357 C101.34 357 100.68 357 100 357 C98.20165417 351.46466604 96.75317076 345.96176738 95.625 340.25 C93.93484033 332.06748098 91.39247077 324.11745442 87.84765625 316.53515625 C87 314 87 314 87 307 C39.81 307 -7.38 307 -56 307 C-56.33 309.64 -56.66 312.28 -57 315 C-57.64833483 317.30935796 -58.36041003 319.60148413 -59.125 321.875 C-61.51576177 329.18288077 -63.53363943 336.5677332 -65.5 344 C-71.84423329 367.87570454 -71.84423329 367.87570454 -75.6875 377.1875 C-77.43285035 381.58500283 -77.82224583 386.21090883 -78.46484375 390.87109375 C-79.15211328 394.88936304 -80.43042242 398.24666232 -82 402 C-82.35368606 403.32807946 -82.69224468 404.66053162 -83 406 C-83.66 406 -84.32 406 -85 406 C-85.03738281 406.78503906 -85.07476562 407.57007813 -85.11328125 408.37890625 C-85.21189453 409.95478516 -85.21189453 409.95478516 -85.3125 411.5625 C-85.39951172 413.11130859 -85.39951172 413.11130859 -85.48828125 414.69140625 C-86 418 -86 418 -89 425 C-105.83 425 -122.66 425 -140 425 C-140 417.18674699 -140 417.18674699 -137.75 412.375 C-134.47265028 404.97543138 -132.23965115 397.37140143 -130.03515625 389.59765625 C-128.94270097 385.80085883 -127.80000274 382.02186911 -126.625 378.25 C-126.40875977 377.55479248 -126.19251953 376.85958496 -125.96972656 376.14331055 C-124.39888605 371.14533893 -122.67642353 366.22347928 -120.796875 361.33203125 C-119.96773507 358.90557762 -119.44800424 356.52226385 -119 354 C-118.34 354 -117.68 354 -117 354 C-116.75765625 353.00742187 -116.5153125 352.01484375 -116.265625 350.9921875 C-110.52029612 327.61973764 -110.52029612 327.61973764 -106.625 317.9375 C-104.32132936 312.17832339 -102.63851321 306.3473074 -101 300.375 C-99.18162015 293.77495462 -97.18787197 287.62134881 -94.15625 281.4609375 C-91.07661248 274.90630359 -89.17303642 267.899954 -87.5 260.875 C-86.3964706 256.27000164 -84.89281883 252.08698891 -83.05078125 247.734375 C-80.9595323 242.29246324 -79.52305961 236.62235836 -78 231 C-77.34 231 -76.68 231 -76 231 C-75.90203125 230.41951904 -75.8040625 229.83903809 -75.703125 229.2409668 C-74.41448661 222.19025406 -72.33358938 215.57990921 -70 208.8125 C-69.18606289 206.41324747 -68.37362163 204.01348708 -67.5625 201.61328125 C-67.14097656 200.36756348 -66.71945312 199.1218457 -66.28515625 197.83837891 C-64.12440759 191.41367372 -62.06828064 184.95491163 -60 178.5 C-55.44241482 164.29633735 -50.75104887 150.14019189 -46 136 C-45.34 136 -44.68 136 -44 136 C-43.90203125 135.45214844 -43.8040625 134.90429688 -43.703125 134.33984375 C-41.56083798 122.98202895 -38.52602788 112.23038263 -34.32641602 101.48120117 C-32.16800202 95.81640728 -30.27301764 90.06872936 -28.375 84.3125 C-27.9934375 83.16716797 -27.611875 82.02183594 -27.21875 80.84179688 C-25.26321416 74.94484485 -23.37352653 69.0387434 -21.63671875 63.07348633 C-20.84584048 60.49797669 -19.86864824 58.0030131 -18.89453125 55.4921875 C-16.70954157 49.40474901 -14.8980111 43.18166459 -13 37 C-12.34 37 -11.68 37 -11 37 C-10.82984375 36.06800781 -10.6596875 35.13601562 -10.484375 34.17578125 C-8.22751269 22.30324496 -5.30731901 10.92517265 0 0 Z " fill="#050505" transform="translate(387,174)" />
<path d="M0 0 C0.66 0 1.32 0 2 0 C9 16.38071066 9 16.38071066 9 25 C9.66 25 10.32 25 11 25 C18.28270667 44.11248399 18.28270667 44.11248399 18 52 C18.66 52 19.32 52 20 52 C20.31227539 52.94206299 20.62455078 53.88412598 20.94628906 54.85473633 C22.12259802 58.40197696 23.3009978 61.94852026 24.47998047 65.49487305 C24.98672216 67.02007879 25.49292184 68.54546474 25.99853516 70.07104492 C29.4417091 80.483426 29.4417091 80.483426 33.125 90.8125 C35.23533984 96.53493381 36.99551158 102.34784072 38.75 108.1875 C41.82567397 118.33928241 45.08422716 128.41270712 48.56152344 138.43432617 C48.8815332 139.37123291 49.20154297 140.30813965 49.53125 141.2734375 C49.95760742 142.50199463 49.95760742 142.50199463 50.39257812 143.75537109 C51 146 51 146 51 150 C51.66 150 52.32 150 53 150 C55.95870791 156.85882288 57.04296522 163.61394333 58 171 C58.66 171 59.32 171 60 171 C64.96162568 185.65966359 69.81001836 200.33168103 74.25976562 215.15576172 C76.03848791 221.04280152 77.98678869 226.8257938 80.12280273 232.59277344 C81.1488273 235.40841557 82.03384717 238.24905841 82.875 241.125 C84.47836431 246.42307337 86.22551663 251.65451792 88.0625 256.875 C88.30790527 257.57641113 88.55331055 258.27782227 88.80615234 259.00048828 C89.97323626 262.28911658 91.20208706 265.5105412 92.62109375 268.69921875 C93.80864505 271.54194069 94.51797197 273.91980367 95 276.9375 C95.59617326 280.25687145 96.37639753 283.24182464 97.625 286.375 C99 290 99 290 99 294 C99.66 294 100.32 294 101 294 C108 313.72081218 108 313.72081218 108 322 C108.66 322 109.32 322 110 322 C110.17015625 322.60585938 110.3403125 323.21171875 110.515625 323.8359375 C111.76291597 328.14837969 113.08619263 332.35397309 114.8125 336.5 C117.71206467 343.53060468 119.98391343 350.78609288 122.34643555 358.01025391 C122.89798611 359.68942354 123.46133543 361.3647109 124.02734375 363.0390625 C125.23475295 366.71462945 126.34503394 370.41388398 127.4375 374.125 C127.65849365 374.87201172 127.8794873 375.61902344 128.10717773 376.38867188 C129.38015409 380.73610304 130.53033565 385.08778095 131.5625 389.5 C132.63246302 393.9632743 134.17578083 397.88598732 136.1484375 402.01953125 C137.26965938 404.6271436 137.71149386 407.18706515 138 410 C138.66 410 139.32 410 140 410 C140.32613281 411.05058594 140.65226563 412.10117187 140.98828125 413.18359375 C141.42964033 414.60157718 141.87104928 416.0195451 142.3125 417.4375 C142.63250977 418.46907227 142.63250977 418.46907227 142.95898438 419.52148438 C144.06613784 423.07429028 145.19766139 426.61651485 146.38085938 430.14477539 C148.03999793 435.11030305 149.66912211 440.08533547 151.29296875 445.0625 C151.7542215 446.47531502 151.7542215 446.47531502 152.22479248 447.91667175 C155.53211853 458.05008736 158.83137124 468.18613036 162.12866211 478.32281494 C162.91223831 480.73035228 163.69699746 483.13749871 164.48242188 485.54443359 C165.63930957 489.09044685 166.78935694 492.63864461 167.9375 496.1875 C168.26065186 497.17556641 168.58380371 498.16363281 168.91674805 499.18164062 C169.20074463 500.06400391 169.48474121 500.94636719 169.77734375 501.85546875 C170.01702881 502.59434326 170.25671387 503.33321777 170.50366211 504.09448242 C171 506 171 506 171 509 C171.66 509 172.32 509 173 509 C173.83806616 511.93622464 174.67062444 514.87382067 175.5 517.8125 C175.73847656 518.64587891 175.97695313 519.47925781 176.22265625 520.33789062 C176.44824219 521.14033203 176.67382812 521.94277344 176.90625 522.76953125 C177.11572266 523.50792236 177.32519531 524.24631348 177.54101562 525.00708008 C178 527 178 527 178 530 C178.66 530 179.32 530 180 530 C182.46968081 536.6681382 183.7059093 542.88250114 185 550 C170.15 550 155.3 550 140 550 C140 549.34 140 548.68 140 548 C139.34 548 138.68 548 138 548 C137.1602972 545.08503169 136.32803997 542.1682814 135.5 539.25 C135.26152344 538.425 135.02304687 537.6 134.77734375 536.75 C134.43896484 535.55117187 134.43896484 535.55117187 134.09375 534.328125 C133.88427734 533.5949707 133.67480469 532.86181641 133.45898438 532.10644531 C133 530 133 530 133 526 C132.34 526 131.68 526 131 526 C130.74911621 524.95948486 130.74911621 524.95948486 130.49316406 523.89794922 C128.45380055 515.57761981 126.14929298 507.34778026 123.75 499.125 C123.55335754 498.44814148 123.35671509 497.77128296 123.15411377 497.07391357 C120.42132354 487.67420729 117.55030228 478.32852095 114.52880859 469.01733398 C111.64428283 460.05153148 109.14514373 450.9851661 106.64453125 441.90625 C105.00025308 435.94947424 103.25469657 430.02513808 101.42138672 424.1237793 C100.43624809 420.87282183 100 418.44829821 100 415 C99.34 415 98.68 415 98 415 C92.9660681 399.68685601 92.9660681 399.68685601 91.9375 393.0625 C91.25036909 388.64900531 89.82872511 385.1479599 87.88671875 381.1484375 C86.50121248 377.79148398 86.2622825 374.60638441 86 371 C85.34 371 84.68 371 84 371 C83.86424561 370.41621582 83.72849121 369.83243164 83.58862305 369.23095703 C82.95815839 366.52820335 82.32285142 363.82660892 81.6875 361.125 C81.47416016 360.2071875 81.26082031 359.289375 81.04101562 358.34375 C79.39478129 347.9731269 79.39478129 347.9731269 75 339 C74.66872046 337.51978078 74.3810354 336.02972659 74.11376953 334.53662109 C73.12088986 329.3759598 71.73914622 324.42825885 70.1796875 319.4140625 C69.63931053 317.64193086 69.09894631 315.86979533 68.55859375 314.09765625 C67.7129236 311.34540226 66.86536201 308.59373823 66.01708984 305.84228516 C65.19172351 303.1592513 64.37297661 300.47426165 63.5546875 297.7890625 C63.29847626 296.96612701 63.04226501 296.14319153 62.77828979 295.2953186 C62.54449615 294.52706757 62.31070251 293.75881653 62.06982422 292.96728516 C61.86267792 292.29573395 61.65553162 291.62418274 61.44210815 290.93228149 C61 289 61 289 61 285 C60.34 285 59.68 285 59 285 C57.07448831 279.5554497 55.92147784 274.08906408 54.78125 268.4375 C54.06621382 265.00803214 54.06621382 265.00803214 52.90625 261.8125 C52 259 52 259 52 255 C51.34 255 50.68 255 50 255 C49.32923511 252.23010036 48.66323683 249.45920258 48 246.6875 C47.80921875 245.90181641 47.6184375 245.11613281 47.421875 244.30664062 C47.24140625 243.54931641 47.0609375 242.79199219 46.875 242.01171875 C46.70742188 241.31522217 46.53984375 240.61872559 46.3671875 239.90112305 C46 238 46 238 46 235 C45.34 235 44.68 235 44 235 C43.63032104 233.61832642 43.63032104 233.61832642 43.25317383 232.20874023 C42.3165086 228.71287067 41.37378528 225.21865642 40.42944336 221.72485352 C40.02550685 220.22723533 39.62310351 218.72920258 39.22241211 217.23071289 C36.80022804 208.17715411 34.15861777 199.26328958 31.13598633 190.3918457 C29.58449328 185.75937357 28.24149649 181.08198592 26.9375 176.375 C25.2869902 170.49253636 23.59936863 164.63560496 21.75 158.8125 C20.60011019 155.15547341 19.67536427 151.58522454 19 147.8125 C18.37018731 144.32603689 17.39305941 141.31980068 16 138.0625 C13.77312864 132.83599969 12.80942913 127.60210162 12 122 C11.34 122 10.68 122 10 122 C9.15890901 118.75195713 8.32849344 115.50127696 7.5 112.25 C7.26152344 111.32960938 7.02304687 110.40921875 6.77734375 109.4609375 C6.43896484 108.12675781 6.43896484 108.12675781 6.09375 106.765625 C5.77954102 105.54020996 5.77954102 105.54020996 5.45898438 104.29003906 C5 102 5 102 5 98 C4.34 98 3.68 98 3 98 C2.69707031 96.97003906 2.39414062 95.94007813 2.08203125 94.87890625 C1.882146 94.19932861 1.68226074 93.51975098 1.47631836 92.81958008 C1.02784315 91.2946984 0.57944004 89.76979551 0.13110352 88.24487305 C-1.01251114 84.35546868 -2.15708344 80.46635429 -3.3046875 76.578125 C-4.34043129 73.06801565 -5.3719281 69.55668304 -6.40039062 66.04443359 C-6.80139158 64.67717707 -7.20374414 63.31031626 -7.60742188 61.94384766 C-8.17963317 60.00536464 -8.74618858 58.06521482 -9.3125 56.125 C-9.63863281 55.01382813 -9.96476562 53.90265625 -10.30078125 52.7578125 C-11 50 -11 50 -11 47 C-11.99 47 -12.98 47 -14 47 C-13.57044854 39.840809 -11.2535359 33.69746862 -8.75 27.01513672 C-7.40347713 23.39723315 -6.1071794 19.76170841 -4.8125 16.125 C-4.56282471 15.43607666 -4.31314941 14.74715332 -4.0559082 14.03735352 C-2.40520464 9.40925951 -1.12885566 4.782924 0 0 Z " fill="#040404" transform="translate(428,49)" />
<path d="M0 0 C2.09541603 -0.09794972 4.19420522 -0.12371187 6.29190922 -0.12304783 C6.95997067 -0.12420167 7.62803212 -0.12535552 8.31633785 -0.12654433 C10.58291018 -0.12921747 12.84941324 -0.12468315 15.11598206 -0.12025452 C16.74614143 -0.12069008 18.37630073 -0.1215647 20.00645965 -0.12284368 C24.50783081 -0.12509164 29.00917841 -0.12106328 33.51054657 -0.11606562 C38.35651837 -0.11176559 43.20248874 -0.11320722 48.04846191 -0.1139679 C56.45168436 -0.11449342 64.85489908 -0.11134369 73.25811958 -0.10573006 C85.40791453 -0.09761884 97.55770571 -0.09500023 109.70750307 -0.09374207 C129.417553 -0.09155095 149.1275988 -0.08488925 168.83764648 -0.07543945 C187.98933898 -0.06626688 207.14103036 -0.05918529 226.29272461 -0.05493164 C228.0621254 -0.05453756 228.0621254 -0.05453756 229.86727167 -0.05413551 C235.78470917 -0.05283051 241.70214669 -0.0515668 247.6195842 -0.05032361 C296.74639232 -0.03994913 345.87319596 -0.0223292 395 0 C396.39087896 2.69332053 397.29077926 4.95050543 397.8125 7.9375 C399.2964126 15.09589439 402.17166219 21.92330083 405.15625 28.578125 C406 31 406 31 406 36 C268.39 36 130.78 36 -11 36 C-9.81442134 30.66489603 -8.68033076 25.64397172 -7.08984375 20.46875 C-6.73986328 19.32921875 -6.38988281 18.1896875 -6.02929688 17.015625 C-5.66900391 15.85546875 -5.30871094 14.6953125 -4.9375 13.5 C-4.57333984 12.30890625 -4.20917969 11.1178125 -3.83398438 9.890625 C-1.12825145 1.12825145 -1.12825145 1.12825145 0 0 Z " fill="#050505" transform="translate(232,639)" />
<path d="M0 0 C2.81997875 2.40337971 3.72818657 4.55107881 4.7890625 8.0703125 C5.09070313 9.04871094 5.39234375 10.02710938 5.703125 11.03515625 C6.00734375 12.05480469 6.3115625 13.07445312 6.625 14.125 C7.23963014 16.14921578 7.8566857 18.17269724 8.4765625 20.1953125 C8.74549316 21.09266113 9.01442383 21.99000977 9.29150391 22.91455078 C9.81625111 24.96360593 9.81625111 24.96360593 11 26 C11.32492137 27.45207396 11.60598867 28.91402815 11.8671875 30.37890625 C12.94795709 36.0103374 14.48886294 41.44587251 16.125 46.9375 C16.67294732 48.77885787 17.21738437 50.62126503 17.7578125 52.46484375 C17.9964502 53.265271 18.23508789 54.06569824 18.48095703 54.89038086 C19 57 19 57 19 60 C19.66 60 20.32 60 21 60 C21.65035371 62.51974253 22.29537493 65.04065935 22.9375 67.5625 C23.11990234 68.26697266 23.30230469 68.97144531 23.49023438 69.69726562 C24.6115514 74.12137098 25.43456329 78.47055438 26 83 C26.66 83 27.32 83 28 83 C28.19335938 83.95261719 28.38671875 84.90523438 28.5859375 85.88671875 C28.97652344 87.76810547 28.97652344 87.76810547 29.375 89.6875 C29.63023437 90.92886719 29.88546875 92.17023438 30.1484375 93.44921875 C30.8778973 96.49086534 31.80631314 99.12473047 33 102 C33.72248454 104.61999887 34.37533207 107.25135227 35.0234375 109.890625 C35.82591495 112.44571321 36.73554927 114.6569167 37.86328125 117.0703125 C40.44455499 122.7481692 42.10226715 128.63811102 43.8125 134.625 C44.5121463 137.03410832 45.2126824 139.44295838 45.9140625 141.8515625 C46.26243164 143.05200195 46.61080078 144.25244141 46.96972656 145.48925781 C48.49163009 150.67527032 50.09101104 155.83657677 51.6875 161 C54.14335005 168.96975888 56.39205223 176.97047663 58.40307617 185.06445312 C59.45399839 189.24959528 59.45399839 189.24959528 61.13671875 193.20703125 C62.25957076 195.5391085 62.05782637 197.44072517 62 200 C48.98496891 200.02336221 35.96994296 200.04103505 22.95489502 200.05181217 C16.90888722 200.05698948 10.86289396 200.06399124 4.81689453 200.07543945 C-1.03813821 200.08645432 -6.89315714 200.09231541 -12.74819946 200.09487724 C-14.96123471 200.09669851 -17.17426936 200.10025307 -19.38729858 200.10573006 C-34.61745644 200.14185937 -49.78834224 199.75913731 -65 199 C-64.8517544 197.5590443 -64.70014601 196.1184343 -64.54711914 194.67797852 C-64.46305313 193.87570328 -64.37898712 193.07342804 -64.29237366 192.24684143 C-63.95790107 189.67647693 -63.32576605 187.37057657 -62.4375 184.9375 C-62.16808594 184.18339844 -61.89867187 183.42929687 -61.62109375 182.65234375 C-61.41613281 182.10707031 -61.21117187 181.56179688 -61 181 C-60.34 181 -59.68 181 -59 181 C-58.88785156 179.87078125 -58.88785156 179.87078125 -58.7734375 178.71875 C-57.4708575 168.19594685 -53.98095543 159.03751333 -49.86328125 149.31640625 C-48.99895167 146.99718705 -48.5634382 144.87903272 -48.1875 142.4375 C-47.23085568 137.33790785 -45.36628558 132.94343538 -43.29296875 128.20703125 C-41.47083849 123.68748761 -40.24348012 119.05414459 -38.95703125 114.359375 C-37.56423539 109.4703773 -35.77911866 104.7586807 -34 100 C-30.81574106 91.32043704 -27.78484018 82.60585062 -25.125 73.75 C-24.90980713 73.0472998 -24.69461426 72.34459961 -24.47290039 71.62060547 C-23.63298002 68.75785659 -22.99476134 66.2619332 -23.0546875 63.265625 C-23.03664063 62.51796875 -23.01859375 61.7703125 -23 61 C-22.00661518 59.66173083 -21.00521665 58.32940485 -20 57 C-18.85490595 54.1788842 -17.96941211 51.28009712 -17.0625 48.375 C-15.46055897 43.38511989 -13.86355469 38.45286719 -11.8125 33.625 C-9.92484269 29.09775549 -8.78439696 24.4860221 -7.66015625 19.71875 C-6.93878008 16.74787535 -6.03826033 13.87518246 -5 11 C-4.34 11 -3.68 11 -3 11 C-2.86722656 10.37351562 -2.73445313 9.74703125 -2.59765625 9.1015625 C-2.42105469 8.28429687 -2.24445313 7.46703125 -2.0625 6.625 C-1.88847656 5.81289063 -1.71445312 5.00078125 -1.53515625 4.1640625 C-1 2 -1 2 0 0 Z " fill="#FBFBFB" transform="translate(404,255)" />
<path d="M0 0 C2.87579981 4.31369972 4 7.80734761 4 13 C4.66 13 5.32 13 6 13 C7.00574701 16.9360551 8.00361005 20.87406674 9 24.8125 C9.28617187 25.93205078 9.57234375 27.05160156 9.8671875 28.20507812 C10.13789063 29.27822266 10.40859375 30.35136719 10.6875 31.45703125 C10.93886719 32.44678955 11.19023437 33.43654785 11.44921875 34.45629883 C12 37 12 37 12 40 C12.66 40 13.32 40 14 40 C14.18175781 40.89460938 14.36351562 41.78921875 14.55078125 42.7109375 C15.9107338 49.25265797 17.36746859 55.65971186 19.44921875 62.01171875 C20 64 20 64 20 67 C20.66 67 21.32 67 22 67 C22.20979492 67.75990234 22.41958984 68.51980469 22.63574219 69.30273438 C28.53132796 90.59761547 34.76088151 111.78112874 41.17375183 132.92579651 C41.58984352 134.30016898 42.00395345 135.67514356 42.41574097 137.05081177 C42.80932553 138.36387729 43.20847142 139.67528712 43.61282349 140.9850769 C45.04193964 145.72739234 45.04193964 145.72739234 44.625 148.4375 C44.41875 148.953125 44.2125 149.46875 44 150 C43.67 149.01 43.34 148.02 43 147 C41.68 147.33 40.36 147.66 39 148 C37.85018955 144.30639586 36.70137434 140.61248352 35.55331421 136.91833496 C35.14310155 135.59884028 34.73264051 134.27942279 34.32192993 132.96008301 C32.17800749 126.07241139 30.04433952 119.18289702 27.984375 112.26953125 C27.52623413 110.73727905 27.52623413 110.73727905 27.05883789 109.17407227 C26.49566036 107.28413747 25.93722108 105.39278138 25.38452148 103.49975586 C23.87644354 98.44904166 22.05764688 93.73182506 19.84985352 88.94677734 C18.87857854 86.72185731 18.29177169 84.5772866 17.875 82.1875 C17.46525981 79.89211871 17.08623376 78.16152247 15.984375 76.09765625 C14.7416487 73.44946567 14.58281735 71.1594429 14.375 68.25 C14.30023438 67.26515625 14.22546875 66.2803125 14.1484375 65.265625 C14.09945313 64.51796875 14.05046875 63.7703125 14 63 C13.34 63 12.68 63 12 63 C9.13249662 55.44021836 7.96862404 48.0110906 7 40 C6.34 40 5.68 40 5 40 C3.67927257 35.64828613 2.36989161 31.29323719 1.0625 26.9375 C0.68931641 25.70837891 0.31613281 24.47925781 -0.06835938 23.21289062 C-0.42607422 22.01728516 -0.78378906 20.82167969 -1.15234375 19.58984375 C-1.48226318 18.49534912 -1.81218262 17.40085449 -2.15209961 16.27319336 C-3.03690927 12.85751725 -3.54714828 9.49662643 -4 6 C-4.30903983 4.66082739 -4.62942911 3.32346746 -5 2 C-3.68 2.33 -2.36 2.66 -1 3 C-0.67 2.01 -0.34 1.02 0 0 Z " fill="#171717" transform="translate(418,275)" />
<path d="M0 0 C0 1.32 0 2.64 0 4 C0.66 4 1.32 4 2 4 C2.67449966 6.39387157 3.33976641 8.78969221 4 11.1875 C4.19078125 11.86103516 4.3815625 12.53457031 4.578125 13.22851562 C5.5825836 16.90555156 6.23704741 20.1850182 6 24 C6.66 24 7.32 24 8 24 C10.59782302 32.72574404 13.18880545 41.45348194 15.77121639 50.18379974 C16.97070416 54.23811165 18.17248558 58.29171318 19.37963867 62.34375 C20.54577301 66.25841531 21.70571227 70.17486842 22.86148262 74.09260559 C23.30222622 75.58267227 23.74515151 77.07209551 24.19035149 78.56083679 C24.81630356 80.6554023 25.43426903 82.75217738 26.05053711 84.84960938 C26.40361435 86.03985718 26.75669159 87.23010498 27.12046814 88.4564209 C28.08070076 92.32513832 28.57850756 96.03974319 29 100 C26.69 100 24.38 100 22 100 C21.80889648 99.34104736 21.61779297 98.68209473 21.42089844 98.00317383 C20.53167235 94.93930309 19.64096009 91.87586694 18.75 88.8125 C18.431521 87.71583008 18.11304199 86.61916016 17.78491211 85.48925781 C15.82401369 78.75791959 13.80510163 72.05579245 11.62890625 65.390625 C11 63 11 63 11 59 C10.34 59 9.68 59 9 59 C6.68539536 50.04495196 4.47185114 41.14097026 3 32 C2.34 32 1.68 32 1 32 C-1.22377358 25.15519338 -2.84498893 18.275435 -4.3046875 11.23046875 C-5.05231618 7.7569355 -5.95005476 4.39213079 -7 1 C-4.57333205 -0.21333397 -2.66500278 0 0 0 Z " fill="#111111" transform="translate(486,499)" />
<path d="M0 0 C3.56234428 -0.08741124 7.12441108 -0.14052896 10.6875 -0.1875 C11.69490234 -0.21263672 12.70230469 -0.23777344 13.74023438 -0.26367188 C21.21409435 -0.33767049 21.21409435 -0.33767049 25.08203125 1.32421875 C27 3 27 3 29 6 C29.30078125 8.375 29.30078125 8.375 29.3125 11 C29.33763672 12.299375 29.33763672 12.299375 29.36328125 13.625 C29 16 29 16 27.66796875 17.75 C26 19 26 19 23 20 C23.19335938 20.556875 23.38671875 21.11375 23.5859375 21.6875 C25.31374425 26.75117127 26.7693067 31.79322065 28 37 C29.65 37 31.3 37 33 37 C33 37.66 33 38.32 33 39 C29.7 39 26.4 39 23 39 C23 38.34 23 37.68 23 37 C23.66 37 24.32 37 25 37 C24.6390625 36.09636719 24.278125 35.19273437 23.90625 34.26171875 C23.21015625 32.49248047 23.21015625 32.49248047 22.5 30.6875 C22.0359375 29.51574219 21.571875 28.34398437 21.09375 27.13671875 C20 24 20 24 20 21 C16.04 21 12.08 21 8 21 C8 26.28 8 31.56 8 37 C10.31 37 12.62 37 15 37 C15 37.66 15 38.32 15 39 C9.72 39 4.44 39 -1 39 C-1 38.01 -1 37.02 -1 36 C0.65 36 2.3 36 4 36 C4 25.11 4 14.22 4 3 C2.68 3 1.36 3 0 3 C0 2.01 0 1.02 0 0 Z " fill="#777777" transform="translate(169,694)" />
<path d="M0 0 C3.68707686 -0.146259 7.37339982 -0.23438838 11.0625 -0.3125 C12.62000977 -0.3753418 12.62000977 -0.3753418 14.20898438 -0.43945312 C21.80472484 -0.56002043 21.80472484 -0.56002043 25.27294922 1.06494141 C27.71508272 2.76438672 29.65433498 4.30866997 31 7 C31.2795944 10.70462582 31.29511059 13.316586 29.8125 16.75 C27.69863045 19.37411393 26.03125659 20.52226241 23 22 C18.62713126 22.38448436 14.40061175 22.13335187 10 22 C10 26.95 10 31.9 10 37 C13.96 37 17.92 37 22 37 C22 37.66 22 38.32 22 39 C14.74 39 7.48 39 0 39 C0 38.34 0 37.68 0 37 C1.98 37 3.96 37 6 37 C6 25.78 6 14.56 6 3 C4.02 3 2.04 3 0 3 C0 2.01 0 1.02 0 0 Z " fill="#636363" transform="translate(333,694)" />
<path d="M0 0 C3.77081722 -0.02899599 7.54160583 -0.04679729 11.3125 -0.0625 C12.38435547 -0.07087891 13.45621094 -0.07925781 14.56054688 -0.08789062 C16.10258789 -0.09272461 16.10258789 -0.09272461 17.67578125 -0.09765625 C18.62364502 -0.10289307 19.57150879 -0.10812988 20.5480957 -0.11352539 C23 0 23 0 26 1 C28.1875 2.9375 28.1875 2.9375 30 6 C30.62308129 9.44960459 30.66748115 12.55511848 30 16 C27.47323961 19.34625024 25.96066458 20.67977847 22 22 C17.99616868 22.13399703 14.0072645 22.04308887 10 22 C10 26.95 10 31.9 10 37 C13.96 37 17.92 37 22 37 C22 37.66 22 38.32 22 39 C14.74 39 7.48 39 0 39 C0 38.34 0 37.68 0 37 C2.31 37 4.62 37 7 37 C7 25.45 7 13.9 7 2 C4.69 2 2.38 2 0 2 C0 1.34 0 0.68 0 0 Z " fill="#3D3D3D" transform="translate(126,694)" />
<path d="M0 0 C4.62 0 9.24 0 14 0 C17.09542257 6.84251304 19.53124529 13.91179628 22 21 C22.39960938 22.1446875 22.79921875 23.289375 23.2109375 24.46875 C23.57445312 25.5309375 23.93796875 26.593125 24.3125 27.6875 C24.80169922 29.11642578 24.80169922 29.11642578 25.30078125 30.57421875 C26 33 26 33 26 36 C27.65 36 29.3 36 31 36 C31 36.99 31 37.98 31 39 C26.05 39 21.1 39 16 39 C16 38.34 16 37.68 16 37 C18.31 37 20.62 37 23 37 C22.67 34.69 22.34 32.38 22 30 C21.34 30 20.68 30 20 30 C20 29.01 20 28.02 20 27 C14.39 27 8.78 27 3 27 C2.67 28.65 2.34 30.3 2 32 C1.36562656 33.6792238 0.70710678 35.35008418 0 37 C1.98 37 3.96 37 6 37 C6 37.66 6 38.32 6 39 C1.38 39 -3.24 39 -8 39 C-8 38.34 -8 37.68 -8 37 C-6.35 37 -4.7 37 -3 37 C-2.91363281 36.41734375 -2.82726562 35.8346875 -2.73828125 35.234375 C-1.67602302 29.0362444 0.24845141 23.65933393 2.76171875 17.90625 C4.42187127 14.0098668 5.73146662 10.03702176 7 6 C7.33 5.01 7.66 4.02 8 3 C5.36 3 2.72 3 0 3 C0 2.01 0 1.02 0 0 Z " fill="#575757" transform="translate(213,694)" />
<path d="M0 0 C2.10353495 -0.0810206 4.20795952 -0.13919907 6.3125 -0.1875 C7.48425781 -0.22230469 8.65601563 -0.25710938 9.86328125 -0.29296875 C13 0 13 0 14.7578125 1.0234375 C16.67041625 4.06676296 17.57799825 7.38693083 18.5625 10.8125 C18.98001239 12.21497969 19.39797444 13.6173256 19.81640625 15.01953125 C20.0165332 15.69741699 20.21666016 16.37530273 20.42285156 17.07373047 C22.03877097 22.46696402 24.0387032 27.63337266 26.1953125 32.828125 C27 35 27 35 27 37 C28.32 37 29.64 37 31 37 C31 37.66 31 38.32 31 39 C26.05 39 21.1 39 16 39 C16 38.01 16 37.02 16 36 C17.98 36 19.96 36 22 36 C21.34 33.03 20.68 30.06 20 27 C14.72 27 9.44 27 4 27 C3.01 30.3 2.02 33.6 1 37 C2.65 37 4.3 37 6 37 C6 37.66 6 38.32 6 39 C1.71 39 -2.58 39 -7 39 C-7 38.34 -7 37.68 -7 37 C-5.515 36.505 -5.515 36.505 -4 36 C-2.62177399 33.29544398 -2.62177399 33.29544398 -1.5 30 C-0.85224609 28.22882812 -0.85224609 28.22882812 -0.19140625 26.421875 C0.99782932 23.00623446 2.13303452 19.57766186 3.24609375 16.13671875 C4.83744256 11.62652291 6.86223925 7.27552151 9 3 C6.03 3 3.06 3 0 3 C0 2.01 0 1.02 0 0 Z " fill="#3D3D3D" transform="translate(296,694)" />
<path d="M0 0 C4.62 0 9.24 0 14 0 C16.17147613 3.98103957 18.04788467 7.52840774 18.875 12 C20.03966624 18.09045649 22.43448154 23.75926053 24.66015625 29.5234375 C25.48561655 31.66530242 26.27412328 33.82236985 27 36 C28.32 36.33 29.64 36.66 31 37 C31 37.66 31 38.32 31 39 C26.05 39 21.1 39 16 39 C16 38.34 16 37.68 16 37 C18.31 37 20.62 37 23 37 C21.515 32.05 21.515 32.05 20 27 C14.06 27 8.12 27 2 27 C1.67 28.98 1.34 30.96 1 33 C0.68325425 34.33737094 0.35729936 35.67288808 0 37 C2.31 37 4.62 37 7 37 C7 37.66 7 38.32 7 39 C2.05 39 -2.9 39 -8 39 C-8 38.01 -8 37.02 -8 36 C-7.401875 35.97808594 -6.80375 35.95617187 -6.1875 35.93359375 C-5.465625 35.62550781 -4.74375 35.31742188 -4 35 C-2.79159894 32.65872296 -1.87370318 30.52551087 -1 28.0625 C-0.4845174 26.68874864 0.03110789 25.31505082 0.546875 23.94140625 C0.79373047 23.2673877 1.04058594 22.59336914 1.29492188 21.89892578 C2.22004013 19.40738501 3.23299038 16.95524338 4.25 14.5 C5.76915244 10.71477849 6.97070467 6.94563211 8 3 C5.36 3 2.72 3 0 3 C0 2.01 0 1.02 0 0 Z " fill="#343434" transform="translate(379,694)" />
<path d="M0 0 C6.27 0 12.54 0 19 0 C19 0.99 19 1.98 19 3 C16.36 3 13.72 3 11 3 C11.33 8.28 11.66 13.56 12 19 C12.99 18.67 13.98 18.34 15 18 C15.33 17.01 15.66 16.02 16 15 C16.66 15 17.32 15 18 15 C18 14.34 18 13.68 18 13 C19.59711646 11.60868258 21.25352684 10.28482665 22.9375 9 C26.51216924 6.45663229 26.51216924 6.45663229 29 3 C27.68 2.67 26.36 2.34 25 2 C25 1.34 25 0.68 25 0 C29.95 0 34.9 0 40 0 C40 0.99 40 1.98 40 3 C38.02 3 36.04 3 34 3 C34 3.66 34 4.32 34 5 C32.44684614 6.37248681 30.83114316 7.67478701 29.1875 8.9375 C26.29438661 11.17100024 23.5111062 13.33872798 21 16 C22.77308666 19.90943986 25.21148833 22.67071739 28.0703125 25.83203125 C29.35433571 27.27460794 30.6001512 28.75213754 31.8046875 30.26171875 C35.33436333 34.72974835 35.33436333 34.72974835 40.4375 37 C41.283125 37 42.12875 37 43 37 C43 37.66 43 38.32 43 39 C37.72 39 32.44 39 27 39 C27 38.34 27 37.68 27 37 C28.65 37 30.3 37 32 37 C29.24093665 32.65511987 26.26252245 28.91482686 22.75 25.125 C21.85796875 24.15820312 20.9659375 23.19140625 20.046875 22.1953125 C19.37140625 21.47085938 18.6959375 20.74640625 18 20 C14.83884224 21.36983503 14.0072908 21.9890638 12 25 C11.54084493 27.96842658 11.54084493 27.96842658 11.375 31.1875 C11.30023437 32.27417969 11.22546875 33.36085938 11.1484375 34.48046875 C11.09945312 35.31191406 11.05046875 36.14335938 11 37 C13.97 37 16.94 37 20 37 C20 37.66 20 38.32 20 39 C13.73 39 7.46 39 1 39 C1 38.01 1 37.02 1 36 C2.98 36 4.96 36 7 36 C7 25.11 7 14.22 7 3 C4.69 3 2.38 3 0 3 C0 2.01 0 1.02 0 0 Z " fill="#484848" transform="translate(701,694)" />
<path d="M0 0 C0.66 0.33 1.32 0.66 2 1 C4.1104152 1.10026685 6.2240798 1.13392192 8.33687019 1.1386652 C9.32803033 1.14292853 9.32803033 1.14292853 10.33921391 1.14727798 C12.57496068 1.15566435 14.81065591 1.15689626 17.04641724 1.15821838 C18.65681675 1.16278106 20.26721508 1.16778064 21.87761199 1.17318195 C26.31970448 1.18680606 30.76178928 1.19419373 35.20389724 1.20060861 C39.98782872 1.20859385 44.77174412 1.22229805 49.55566406 1.23532104 C57.84972761 1.25711049 66.14379277 1.27524593 74.43787003 1.29092598 C86.42983403 1.31360218 98.42178024 1.34174809 110.41372918 1.37124526 C129.86809676 1.41894882 149.32247161 1.46220549 168.77685547 1.50268555 C187.67920497 1.54202643 206.58154801 1.58344926 225.48388672 1.62768555 C226.64828955 1.63040982 227.81269238 1.63313409 229.01238014 1.63594092 C234.85362674 1.64962016 240.69487324 1.66334048 246.5361197 1.67708123 C295.02406633 1.79108941 343.51202695 1.89788914 392 2 C392 2.33 392 2.66 392 3 C261.32 3.33 130.64 3.66 -4 4 C-4.33 3.01 -4.66 2.02 -5 1 C-3.34608154 0.60828247 -1.67654729 0.27942455 0 0 Z " fill="#EDEDED" transform="translate(235,636)" />
<path d="M0 0 C2.3756852 -0.0883967 4.72208674 -0.11530305 7.09765625 -0.09765625 C8.16094398 -0.09553383 8.16094398 -0.09553383 9.24571228 -0.09336853 C11.51801712 -0.08775443 13.79022475 -0.07519963 16.0625 -0.0625 C17.59960796 -0.05748681 19.13671745 -0.05292359 20.67382812 -0.04882812 C24.44925642 -0.03778042 28.22461171 -0.02050641 32 0 C32 4.29 32 8.58 32 13 C31.01 13 30.02 13 29 13 C27.8422494 9.52674819 27.93133348 6.63932552 28 3 C24.7 3 21.4 3 18 3 C18 14.22 18 25.44 18 37 C20.64 37 23.28 37 26 37 C26 37.66 26 38.32 26 39 C18.74 39 11.48 39 4 39 C4 38.01 4 37.02 4 36 C6.97 36 9.94 36 13 36 C13 25.11 13 14.22 13 3 C9.37 3 5.74 3 2 3 C2 6.3 2 9.6 2 13 C1.01 13 0.02 13 -1 13 C-1.02686553 11.02090602 -1.04633375 9.04171029 -1.0625 7.0625 C-1.07410156 5.96035156 -1.08570313 4.85820313 -1.09765625 3.72265625 C-1.06542969 2.82417969 -1.03320312 1.92570313 -1 1 C-0.67 0.67 -0.34 0.34 0 0 Z " fill="#646464" transform="translate(416,694)" />
<path d="M0 0 C1.2375 0.7115625 1.2375 0.7115625 2.5 1.4375 C2.5 0.4475 2.5 -0.5425 2.5 -1.5625 C3.82 -1.5625 5.14 -1.5625 6.5 -1.5625 C6.5 2.7275 6.5 7.0175 6.5 11.4375 C5.18 11.4375 3.86 11.4375 2.5 11.4375 C2.29375 10.509375 2.0875 9.58125 1.875 8.625 C0.75817408 5.26706154 0.75817408 5.26706154 -2.1875 3.5625 C-7.04576546 1.91252305 -10.79708167 2.01177042 -15.75 3.25 C-19.17336135 4.70254519 -19.17336135 4.70254519 -21.5 7.4375 C-21.80058781 10.27834946 -21.91862456 12.85190386 -21.875 15.6875 C-21.88660156 16.42613281 -21.89820313 17.16476562 -21.91015625 17.92578125 C-21.88253048 23.14705203 -20.89154539 26.79022537 -18.5 31.4375 C-16.92304368 33.5160608 -16.92304368 33.5160608 -14.5 34.4375 C-9.88219239 34.88438461 -7.4457029 34.84789937 -3.1875 33 C-2.300625 32.484375 -1.41375 31.96875 -0.5 31.4375 C0.985 30.9425 0.985 30.9425 2.5 30.4375 C2.83 28.7875 3.16 27.1375 3.5 25.4375 C4.49 25.4375 5.48 25.4375 6.5 25.4375 C6.13958609 28.59112169 5.4987917 30.43935561 3.75 33.125 C1.30596449 35.63692539 -0.2037866 36.36742492 -3.5 37.4375 C-8.57547229 38.01391794 -13.72589615 38.03457501 -18.5625 36.25 C-21.5 34.4375 -21.5 34.4375 -22.9375 31.75 C-23.123125 30.986875 -23.30875 30.22375 -23.5 29.4375 C-24.16 29.4375 -24.82 29.4375 -25.5 29.4375 C-28.24617269 23.56222218 -28.02876838 17.80675548 -27.5 11.4375 C-26.15430806 7.72082703 -24.64015819 4.89501511 -21.5 2.4375 C-20.84 2.4375 -20.18 2.4375 -19.5 2.4375 C-19.17 1.4475 -18.84 0.4575 -18.5 -0.5625 C-11.68554535 -2.97595269 -6.65610998 -2.97147767 0 0 Z " fill="#494949" transform="translate(566.5,695.5625)" />
<path d="M0 0 C4.15858715 1.60021643 6.76702246 4.64893607 9.6875 7.875 C10.18572266 8.40480469 10.68394531 8.93460938 11.19726562 9.48046875 C13.21449013 11.68655145 14.83846192 13.5373792 15.83203125 16.3828125 C15.88746094 16.91648437 15.94289063 17.45015625 16 18 C14.35 18 12.7 18 11 18 C11 18.66 11 19.32 11 20 C16.28 20 21.56 20 27 20 C27 20.33 27 20.66 27 21 C12.89517063 21.92888947 -0.89517063 21.92888947 -15 21 C-15 20.67 -15 20.34 -15 20 C-8.73 20 -2.46 20 4 20 C4 19.34 4 18.68 4 18 C1.03 18 -1.94 18 -5 18 C-5.76681614 7.4690583 -5.76681614 7.4690583 -3.88671875 3.8671875 C-2.5 2.25 -2.5 2.25 0 0 Z " fill="#E1E1E1" transform="translate(717,713)" />
<path d="M0 0 C7.59 0 15.18 0 23 0 C23 0.99 23 1.98 23 3 C20.69 3 18.38 3 16 3 C16.00785522 4.24088379 16.00785522 4.24088379 16.01586914 5.50683594 C16.03665469 9.25454957 16.04966524 13.00225106 16.0625 16.75 C16.07087891 18.05195312 16.07925781 19.35390625 16.08789062 20.6953125 C16.09272461 22.57089844 16.09272461 22.57089844 16.09765625 24.484375 C16.10551147 26.21252441 16.10551147 26.21252441 16.11352539 27.97558594 C16.01743867 30.53541893 15.82662449 32.58994278 15 35 C12.98400561 37.22051556 10.69419541 38.6995326 8 40 C3.09944297 40.93299067 -1.45772655 39.94668862 -6 38 C-6.66 37.34 -7.32 36.68 -8 36 C-8.26991906 33.31160615 -8.08737357 30.70858064 -8 28 C-6.68 28.33 -5.36 28.66 -4 29 C-3.34 30.98 -2.68 32.96 -2 35 C-0.783125 35.04125 0.43375 35.0825 1.6875 35.125 C2.71423828 35.15980469 2.71423828 35.15980469 3.76171875 35.1953125 C6.54644834 35.0610508 6.54644834 35.0610508 11 33 C11.33 23.1 11.66 13.2 12 3 C8.04 3 4.08 3 0 3 C0 2.01 0 1.02 0 0 Z " fill="#303030" transform="translate(258,694)" />
<path d="M0 0 C8.58 0 17.16 0 26 0 C26 0.99 26 1.98 26 3 C22.37 3 18.74 3 15 3 C15 14.22 15 25.44 15 37 C18.3 37 21.6 37 25 37 C25 37.66 25 38.32 25 39 C16.75 39 8.5 39 0 39 C0 38.01 0 37.02 0 36 C3.63 36 7.26 36 11 36 C11 25.11 11 14.22 11 3 C7.37 3 3.74 3 0 3 C0 2.01 0 1.02 0 0 Z " fill="#404040" transform="translate(627,694)" />
<path d="M0 0 C0 1.32 0 2.64 0 4 C0.66 4 1.32 4 2 4 C2.67449966 6.39387157 3.33976641 8.78969221 4 11.1875 C4.19078125 11.86103516 4.3815625 12.53457031 4.578125 13.22851562 C5.5825836 16.90555156 6.23704741 20.1850182 6 24 C6.66 24 7.32 24 8 24 C8.70005949 26.07914664 9.38462244 28.16351586 10.0625 30.25 C10.44535156 31.41015625 10.82820313 32.5703125 11.22265625 33.765625 C12 37 12 37 11 41 C10.34 38.03 9.68 35.06 9 32 C8.05125 32.185625 7.1025 32.37125 6.125 32.5625 C3 33 3 33 1 32 C-1.7313028 25.43629326 -2.86932446 18.15798404 -4.3046875 11.23046875 C-5.05231618 7.7569355 -5.95005476 4.39213079 -7 1 C-4.57333205 -0.21333397 -2.66500278 0 0 0 Z " fill="#1C1C1C" transform="translate(486,499)" />
<path d="M0 0 C5.85564392 -0.18017366 10.47280987 0.0424535 16 2 C16.33 2.33 16.66 2.66 17 3 C17.16796875 4.99609375 17.16796875 4.99609375 17.1875 7.4375 C17.20167969 8.24058594 17.21585938 9.04367187 17.23046875 9.87109375 C17.15441406 10.57363281 17.07835937 11.27617188 17 12 C16.34 12.66 15.68 13.32 15 14 C14.01 14 13.02 14 12 14 C12 14.66 12 15.32 12 16 C8.04 16 4.08 16 0 16 C0 10.72 0 5.44 0 0 Z " fill="#F1F1F1" transform="translate(136,697)" />
<path d="M0 0 C5.28 0 10.56 0 16 0 C16 0.33 16 0.66 16 1 C14.35 1 12.7 1 11 1 C11 12.55 11 24.1 11 36 C16.28 36 21.56 36 27 36 C27 33.36 27 30.72 27 28 C27.5 25.5 27.5 25.5 28 24 C29.32 24 30.64 24 32 24 C32.02694851 25.95825873 32.04637218 27.91662226 32.0625 29.875 C32.07410156 30.96554687 32.08570313 32.05609375 32.09765625 33.1796875 C32 36 32 36 31 38 C20.11 38 9.22 38 -2 38 C-2 37.34 -2 36.68 -2 36 C1.3 36 4.6 36 8 36 C8 24.45 8 12.9 8 1 C5.36 1 2.72 1 0 1 C0 0.67 0 0.34 0 0 Z " fill="#464646" transform="translate(582,695)" />
<path d="M0 0 C10.57142857 -0.28571429 10.57142857 -0.28571429 16 2 C17.22222222 9.33333333 17.22222222 9.33333333 16.1875 12.4375 C15 14 15 14 13 15 C8.66396021 15.1393329 4.33919329 15.04254111 0 15 C0 10.05 0 5.1 0 0 Z " fill="#F5F5F5" transform="translate(343,697)" />
<path d="M0 0 C0.33 0.66 0.66 1.32 1 2 C1.66 2 2.32 2 3 2 C3.18175781 2.80824219 3.36351562 3.61648438 3.55078125 4.44921875 C3.80214844 5.51785156 4.05351562 6.58648438 4.3125 7.6875 C4.67794922 9.27111328 4.67794922 9.27111328 5.05078125 10.88671875 C5.99797823 13.99336892 7.30152874 16.25353584 9 19 C9.86397362 21.64736301 10.39922546 24.27340784 11 27 C12.32 27 13.64 27 15 27 C15 27.66 15 28.32 15 29 C10.05 29 5.1 29 0 29 C0 28.01 0 27.02 0 26 C1.98 26 3.96 26 6 26 C5.34 23.03 4.68 20.06 4 17 C-1.28 17 -6.56 17 -12 17 C-12.99 20.3 -13.98 23.6 -15 27 C-13.35 27 -11.7 27 -10 27 C-10 27.66 -10 28.32 -10 29 C-14.29 29 -18.58 29 -23 29 C-23 28.34 -23 27.68 -23 27 C-22.01 26.67 -21.02 26.34 -20 26 C-18.63362604 23.01634355 -18.63362604 23.01634355 -17.5 19.5 C-16.28125 15.90625 -16.28125 15.90625 -15 13 C-14.01 12.67 -13.02 12.34 -12 12 C-12 12.66 -12 13.32 -12 14 C-7.05 14 -2.1 14 3 14 C2.505 12.618125 2.01 11.23625 1.5 9.8125 C0.35939571 6.41746189 -0.35011048 3.61780831 0 0 Z " fill="#212121" transform="translate(312,704)" />
<path d="M0 0 C8.58 0 17.16 0 26 0 C26 0.99 26 1.98 26 3 C22.37 3 18.74 3 15 3 C15 14.22 15 25.44 15 37 C18.63 37 22.26 37 26 37 C26 37.66 26 38.32 26 39 C17.75 39 9.5 39 1 39 C1 38.34 1 37.68 1 37 C4.63 37 8.26 37 12 37 C12 25.78 12 14.56 12 3 C8.04 3 4.08 3 0 3 C0 2.01 0 1.02 0 0 Z " fill="#2D2D2D" transform="translate(461,694)" />
<path d="M0 0 C5.85564392 -0.18017366 10.47280987 0.0424535 16 2 C16.33 2.33 16.66 2.66 17 3 C17.2303696 5.85658305 17.40518477 8.20309955 17 11 C15.0400569 13.25030504 13.57156997 13.82535362 10.75 14.6875 C7.13953252 15.0977804 3.63362968 15.06158694 0 15 C0 10.05 0 5.1 0 0 Z " fill="#F4F4F4" transform="translate(177,697)" />
<path d="M0 0 C1.35405017 0.62351451 2.69493815 1.27955862 4 2 C4.66 1.34 5.32 0.68 6 0 C6.99 0 7.98 0 9 0 C9 4.29 9 8.58 9 13 C7.68 13 6.36 13 5 13 C4.67 10.69 4.34 8.38 4 6 C-1.0809891 3.91549165 -5.5882374 3.41809004 -11 4 C-14.45204093 4.72573139 -14.45204093 4.72573139 -17 7 C-21.16272247 13.90633501 -20.29761768 22.25091746 -20 30 C-20.66 30 -21.32 30 -22 30 C-22 29.01 -22 28.02 -22 27 C-22.66 27 -23.32 27 -24 27 C-24.50083951 18.90309461 -24.14963478 12.13683115 -20 5 C-14.31069921 -0.98873767 -7.74859573 -1.74695613 0 0 Z " fill="#313131" transform="translate(688,694)" />
<path d="M0 0 C6.6 0 13.2 0 20 0 C20 0.66 20 1.32 20 2 C15.71 2 11.42 2 7 2 C7 7.28 7 12.56 7 18 C11.29 18 15.58 18 20 18 C19.67 18.99 19.34 19.98 19 21 C15.04 20.67 11.08 20.34 7 20 C7 25.28 7 30.56 7 36 C9.31 36 11.62 36 14 36 C14 36.66 14 37.32 14 38 C8.72 38 3.44 38 -2 38 C-2 37.34 -2 36.68 -2 36 C-0.02 36 1.96 36 4 36 C4 24.45 4 12.9 4 1 C2.68 0.67 1.36 0.34 0 0 Z " fill="#222222" transform="translate(170,695)" />
<path d="M0 0 C3.96 0 7.92 0 12 0 C12 0.66 12 1.32 12 2 C11.34 2 10.68 2 10 2 C9.88785156 2.65355469 9.77570313 3.30710937 9.66015625 3.98046875 C8.81661578 7.83879292 7.63715559 11.55223499 6.4375 15.3125 C6.20353516 16.05306641 5.96957031 16.79363281 5.72851562 17.55664062 C5.15468028 19.37183405 4.57765989 21.18602006 4 23 C6.29199177 22.85936865 8.58359186 22.71234057 10.875 22.5625 C12.15117187 22.48128906 13.42734375 22.40007813 14.7421875 22.31640625 C17.88300152 22.20793973 17.88300152 22.20793973 20 21 C20.33 22.98 20.66 24.96 21 27 C20.34 26.67 19.68 26.34 19 26 C17.62451844 25.91691362 16.24514204 25.89263984 14.8671875 25.90234375 C14.06152344 25.90556641 13.25585938 25.90878906 12.42578125 25.91210938 C11.58402344 25.92048828 10.74226563 25.92886719 9.875 25.9375 C8.60076172 25.94426758 8.60076172 25.94426758 7.30078125 25.95117188 C5.20049091 25.96297126 3.1002367 25.98090694 1 26 C0.84660156 26.94101562 0.69320313 27.88203125 0.53515625 28.8515625 C0.1217711 31.28359485 -0.35964715 33.62154657 -1 36 C1.31 36 3.62 36 6 36 C6 36.66 6 37.32 6 38 C1.05 38 -3.9 38 -9 38 C-9 37.01 -9 36.02 -9 35 C-8.401875 34.97808594 -7.80375 34.95617187 -7.1875 34.93359375 C-6.465625 34.62550781 -5.74375 34.31742188 -5 34 C-3.79159474 31.65871482 -2.87387353 29.52545059 -2 27.0625 C-1.48312549 25.68748024 -0.96619832 24.31248027 -0.44921875 22.9375 C-0.20220215 22.26332031 0.04481445 21.58914063 0.29931641 20.89453125 C1.21105741 18.42933605 2.19502338 15.99615914 3.1875 13.5625 C4.85489685 9.39749615 6.44183955 5.20703322 8 1 C5.36 1 2.72 1 0 1 C0 0.67 0 0.34 0 0 Z " fill="#313131" transform="translate(380,695)" />
<path d="M0 0 C0.66 0 1.32 0 2 0 C4.99871268 6.73753318 7.60490827 13.53025862 9.8125 20.5625 C10.14060669 21.59793945 10.14060669 21.59793945 10.4753418 22.65429688 C11.36439652 25.54792851 12 27.95441383 12 31 C13.65 31 15.3 31 17 31 C17 31.99 17 32.98 17 34 C12.05 34 7.1 34 2 34 C2 33.34 2 32.68 2 32 C4.31 32 6.62 32 9 32 C8.67 30.9275 8.34 29.855 8 28.75 C7 25 7 25 7 21 C0.73 21 -5.54 21 -12 21 C-11.67 19.35 -11.34 17.7 -11 16 C-10.34 16.66 -9.68 17.32 -9 18 C-6.63490639 18.30059943 -4.25558119 18.49515012 -1.875 18.625 C-0.59367188 18.69976563 0.68765625 18.77453125 2.0078125 18.8515625 C2.99523437 18.90054688 3.98265625 18.94953125 5 19 C4.6390625 17.96359375 4.278125 16.9271875 3.90625 15.859375 C3.4371807 14.48969264 2.96844834 13.11989486 2.5 11.75 C2.26152344 11.06808594 2.02304688 10.38617187 1.77734375 9.68359375 C0.60578713 6.23586997 0 3.68297096 0 0 Z " fill="#2C2C2C" transform="translate(227,699)" />
<path d="M0 0 C6.93 0 13.86 0 21 0 C21 0.33 21 0.66 21 1 C15.06 1.495 15.06 1.495 9 2 C9 7.28 9 12.56 9 18 C12.63 18.33 16.26 18.66 20 19 C20 19.33 20 19.66 20 20 C16.37 20 12.74 20 9 20 C9 25.28 9 30.56 9 36 C12.96 36 16.92 36 21 36 C21 36.66 21 37.32 21 38 C13.74 38 6.48 38 -1 38 C-1 37.34 -1 36.68 -1 36 C1.31 36 3.62 36 6 36 C6 24.45 6 12.9 6 1 C4.02 1 2.04 1 0 1 C0 0.67 0 0.34 0 0 Z " fill="#242424" transform="translate(334,695)" />
<path d="M0 0 C0.66 0 1.32 0 2 0 C2.83857688 2.60258324 3.67103344 5.20685647 4.5 7.8125 C4.73847656 8.55048828 4.97695313 9.28847656 5.22265625 10.04882812 C6.19940136 13.13255196 7 15.74495809 7 19 C2.71 19 -1.58 19 -6 19 C-4.43489934 12.36695433 -2.93635036 6.15235313 0 0 Z " fill="#ECECEC" transform="translate(390,698)" />
<path d="M0 0 C0.33 0 0.66 0 1 0 C1 9.9 1 19.8 1 30 C1.66 30 2.32 30 3 30 C3 30.66 3 31.32 3 32 C-2.3483621 36.67981684 -2.3483621 36.67981684 -6.03515625 37.39453125 C-10.3285221 37.48552744 -14.07396282 36.68258736 -18 35 C-18.66 34.34 -19.32 33.68 -20 33 C-20.26991906 30.31160615 -20.08737357 27.70858064 -20 25 C-18.68 25.33 -17.36 25.66 -16 26 C-15.34 27.98 -14.68 29.96 -14 32 C-12.783125 32.04125 -11.56625 32.0825 -10.3125 32.125 C-9.28576172 32.15980469 -9.28576172 32.15980469 -8.23828125 32.1953125 C-5.45355166 32.0610508 -5.45355166 32.0610508 -1 30 C-0.67 20.1 -0.34 10.2 0 0 Z " fill="#787878" transform="translate(270,697)" />
<path d="M0 0 C1.99775873 2.99663809 2.98997415 5.53662626 4.125 8.9375 C4.47820312 9.97777344 4.83140625 11.01804687 5.1953125 12.08984375 C6 15 6 15 6 19 C2.04 19 -1.92 19 -6 19 C-5.59524765 11.84937514 -3.17476348 6.37295696 0 0 Z " fill="#E4E4E4" transform="translate(225,698)" />
<path d="M0 0 C2.51242417 3.03794555 3.88228534 5.91438973 5.1875 9.625 C5.53167969 10.58664062 5.87585938 11.54828125 6.23046875 12.5390625 C7 15 7 15 7 17 C2.71 17 -1.58 17 -6 17 C-5.30180384 13.50901922 -4.55570104 10.21408489 -3.5625 6.8125 C-3.31628906 5.95269531 -3.07007813 5.09289062 -2.81640625 4.20703125 C-2 2 -2 2 0 0 Z " fill="#EAEAEA" transform="translate(308,700)" />
<path d="M0 0 C0.99 0 1.98 0 3 0 C2.9262673 3.02304071 2.38784724 5.32996045 0.8671875 7.95703125 C-0.96475238 10.21703748 -2.45213526 11.56861532 -5 13 C-9.80932961 13.8724157 -14.18803669 13.84709379 -19 13 C-22.57335975 10.52613556 -24.37001868 8.00086323 -26 4 C-24.25 4.25 -24.25 4.25 -22 5 C-21.46375 5.680625 -20.9275 6.36125 -20.375 7.0625 C-18.2035652 9.16495735 -18.2035652 9.16495735 -15.69921875 9.3671875 C-11.80527005 9.47102613 -8.7177643 9.27488845 -5.0625 7.875 C-2.50064498 5.54604089 -1.33763166 3.16807498 0 0 Z " fill="#515151" transform="translate(694,721)" />
<path d="M0 0 C0.33 0 0.66 0 1 0 C1.33 10.89 1.66 21.78 2 33 C4.64 33.33 7.28 33.66 10 34 C10 34.66 10 35.32 10 36 C2.74 36 -4.52 36 -12 36 C-12 35.34 -12 34.68 -12 34 C-8.37 34 -4.74 34 -1 34 C-1.00523682 33.00556885 -1.01047363 32.0111377 -1.01586914 30.98657227 C-1.03392041 27.30966079 -1.04543246 23.63275325 -1.05493164 19.95581055 C-1.05997157 18.36205386 -1.0668035 16.76830181 -1.07543945 15.17456055 C-1.08751999 12.88849747 -1.09323155 10.60249533 -1.09765625 8.31640625 C-1.10281754 7.59973282 -1.10797882 6.88305939 -1.11329651 6.14466858 C-1.11349263 4.42936328 -1.06192007 2.71418734 -1 1 C-0.67 0.67 -0.34 0.34 0 0 Z " fill="#171717" transform="translate(432,697)" />
<path d="M0 0 C0.66 0 1.32 0 2 0 C3.4375 1.71484375 3.4375 1.71484375 5 3.9375 C7.04816804 6.98632637 7.04816804 6.98632637 10 9 C15.73792615 9.38252841 18.92644443 8.94974161 24 6 C24.99 5.67 25.98 5.34 27 5 C27.33 3.35 27.66 1.7 28 0 C28.99 0 29.98 0 31 0 C30.63958609 3.15362169 29.9987917 5.00185561 28.25 7.6875 C25.80596449 10.19942539 24.2962134 10.92992492 21 12 C15.94869306 12.5736735 10.80765484 12.6128133 6 10.8125 C3 9 3 9 1.0625 6.5625 C0 4 0 4 0 0 Z " fill="#2F2F2F" transform="translate(542,721)" />
<path d="M0 0 C2.87579981 4.31369972 4 7.80734761 4 13 C4.66 13 5.32 13 6 13 C6.53122363 14.76774419 7.04964073 16.53934083 7.5625 18.3125 C7.85253906 19.29863281 8.14257812 20.28476562 8.44140625 21.30078125 C9 24 9 24 8 27 C6 24 6 24 5.0625 21.0625 C4.05486377 18.15813675 2.96710639 16.3247621 1 14 C0.67 15.65 0.34 17.3 0 19 C-1.97419933 16.038701 -2.45168745 14.47586427 -3.0625 11.0625 C-3.61962069 8.00984695 -4.21285056 5.00231335 -5 2 C-3.68 2.33 -2.36 2.66 -1 3 C-0.67 2.01 -0.34 1.02 0 0 Z " fill="#161616" transform="translate(418,275)" />
<path d="M0 0 C0.7528125 0.07863281 1.505625 0.15726563 2.28125 0.23828125 C4.62887164 0.71359197 6.41514781 1.52661639 8.5 2.6875 C9.16 2.0275 9.82 1.3675 10.5 0.6875 C11.49 0.6875 12.48 0.6875 13.5 0.6875 C13.5 4.9775 13.5 9.2675 13.5 13.6875 C12.18 13.6875 10.86 13.6875 9.5 13.6875 C9.17 11.3775 8.84 9.0675 8.5 6.6875 C4.08501503 4.98942886 0.13136497 4.37554815 -4.546875 4.12890625 C-5.19140625 3.98324219 -5.8359375 3.83757813 -6.5 3.6875 C-7.16 2.6975 -7.82 1.7075 -8.5 0.6875 C-5.4891035 -0.2226119 -3.11935536 -0.35787125 0 0 Z " fill="#626262" transform="translate(683.5,693.3125)" />
<path d="M0 0 C4.95 0 9.9 0 15 0 C15 0.99 15 1.98 15 3 C13.02 3 11.04 3 9 3 C9 3.66 9 4.32 9 5 C7.44684614 6.37248681 5.83114316 7.67478701 4.1875 8.9375 C0.62619669 11.65139051 0.62619669 11.65139051 -2.625 14.7109375 C-4 16 -4 16 -7.1875 16.6875 C-8.115625 16.790625 -9.04375 16.89375 -10 17 C-9.67 16.34 -9.34 15.68 -9 15 C-8.34 15 -7.68 15 -7 15 C-7 14.34 -7 13.68 -7 13 C-5.40288354 11.60868258 -3.74647316 10.28482665 -2.0625 9 C1.51216924 6.45663229 1.51216924 6.45663229 4 3 C2.68 2.67 1.36 2.34 0 2 C0 1.34 0 0.68 0 0 Z " fill="#3B3B3B" transform="translate(726,694)" />
<path d="M0 0 C1.32 0 2.64 0 4 0 C4.86656998 2.74663704 5.71851786 5.4964243 6.5625 8.25 C6.80935547 9.02730469 7.05621094 9.80460937 7.31054688 10.60546875 C7.53935547 11.35957031 7.76816406 12.11367188 8.00390625 12.890625 C8.21861572 13.58188477 8.4333252 14.27314453 8.65454102 14.98535156 C9.0491764 17.28678704 8.71084423 18.79616682 8 21 C7.67 20.01 7.34 19.02 7 18 C5.68 18.33 4.36 18.66 3 19 C2.32451422 16.94037148 1.65995688 14.87715678 1 12.8125 C0.62875 11.66394531 0.2575 10.51539063 -0.125 9.33203125 C-0.90916596 6.34589928 -1.26834816 4.05805095 -1 1 C-0.67 0.67 -0.34 0.34 0 0 Z " fill="#131313" transform="translate(454,404)" />
<path d="M0 0 C0 0.99 0 1.98 0 3 C0.33 3.66 0.66 4.32 1 5 C1.15004973 6.3734635 1.24838006 7.7528526 1.31640625 9.1328125 C1.35830078 9.93847656 1.40019531 10.74414062 1.44335938 11.57421875 C1.48267578 12.41597656 1.52199219 13.25773438 1.5625 14.125 C1.60568359 14.97449219 1.64886719 15.82398438 1.69335938 16.69921875 C1.79954236 18.79928223 1.90028497 20.89961948 2 23 C1.67 22.34 1.34 21.68 1 21 C0.34 21 -0.32 21 -1 21 C-1.33 22.32 -1.66 23.64 -2 25 C-4.74304848 19.13140624 -4.54289194 13.36301287 -4 7 C-3.17342744 4.23299797 -2.07414128 2.07414128 0 0 Z " fill="#606060" transform="translate(543,700)" />
<path d="M0 0 C0.33 0 0.66 0 1 0 C1.62868813 11.68089176 2.12857751 23.29944675 2 35 C5.96 35 9.92 35 14 35 C14 35.33 14 35.66 14 36 C7.07 36 0.14 36 -7 36 C-7 35.34 -7 34.68 -7 34 C-4.69 34 -2.38 34 0 34 C0 22.78 0 11.56 0 0 Z " fill="#111111" transform="translate(340,697)" />
<path d="M0 0 C2 4 2 4 1.7578125 6.359375 C1.54898437 7.14828125 1.34015625 7.9371875 1.125 8.75 C0.92132813 9.54921875 0.71765625 10.3484375 0.5078125 11.171875 C0.25644531 12.07679688 0.25644531 12.07679688 0 13 C2.31 13 4.62 13 7 13 C7 13.66 7 14.32 7 15 C2.05 15 -2.9 15 -8 15 C-8 14.01 -8 13.02 -8 12 C-6.68 11.67 -5.36 11.34 -4 11 C-2.68 7.37 -1.36 3.74 0 0 Z " fill="#323232" transform="translate(379,718)" />
<path d="M0 0 C0.144375 0.598125 0.28875 1.19625 0.4375 1.8125 C0.8872439 3.56150404 1.42892341 5.28677023 2 7 C1.40206327 9.35188447 0.74118205 11.68925595 0 14 C1.65 14 3.3 14 5 14 C5 14.66 5 15.32 5 16 C0.71 16 -3.58 16 -8 16 C-8 15.34 -8 14.68 -8 14 C-7.01 13.67 -6.02 13.34 -5 13 C-3.52305039 9.98862104 -3.52305039 9.98862104 -2.3125 6.4375 C-1.87550781 5.23996094 -1.43851562 4.04242187 -0.98828125 2.80859375 C-0.66214844 1.88175781 -0.33601563 0.95492187 0 0 Z " fill="#535353" transform="translate(297,717)" />
<path d="M0 0 C4.75 -0.125 4.75 -0.125 7 1 C7.66 0.67 8.32 0.34 9 0 C11.3329866 -0.04022391 13.66706666 -0.04320247 16 0 C16 0.33 16 0.66 16 1 C14.02 1 12.04 1 10 1 C10 1.66 10 2.32 10 3 C17.26 3 24.52 3 32 3 C32 3.33 32 3.66 32 4 C17.81 4 3.62 4 -11 4 C-11 3.67 -11 3.34 -11 3 C-6.05 3 -1.1 3 4 3 C4 2.34 4 1.68 4 1 C2.68 0.67 1.36 0.34 0 0 Z " fill="#ADADAD" transform="translate(323,730)" />
<path d="M0 0 C0.33 0.66 0.66 1.32 1 2 C0.5625 4.125 0.5625 4.125 0 6 C0.66 6 1.32 6 2 6 C1.01 9.3 0.02 12.6 -1 16 C3.29 16 7.58 16 12 16 C12 16.33 12 16.66 12 17 C9.54159395 17.02691685 7.08348118 17.04679802 4.625 17.0625 C3.92632812 17.07087891 3.22765625 17.07925781 2.5078125 17.08789062 C-2.7734375 17.11328125 -2.7734375 17.11328125 -5 16 C-3.90301833 10.30860098 -2.45946923 5.25432063 0 0 Z " fill="#4F4F4F" transform="translate(303,701)" />
<path d="M0 0 C0.99 0.33 1.98 0.66 3 1 C4.16796875 3.43359375 4.16796875 3.43359375 5.1875 6.4375 C5.70376953 7.92056641 5.70376953 7.92056641 6.23046875 9.43359375 C7 12 7 12 7 14 C8.65 14 10.3 14 12 14 C12 14.66 12 15.32 12 16 C8.7 16 5.4 16 2 16 C2 15.34 2 14.68 2 14 C2.66 14 3.32 14 4 14 C3.566875 12.98679687 3.566875 12.98679687 3.125 11.953125 C2.75375 11.06109375 2.3825 10.1690625 2 9.25 C1.62875 8.36828125 1.2575 7.4865625 0.875 6.578125 C0 4 0 4 0 0 Z " fill="#171717" transform="translate(190,717)" />
<path d="M0 0 C2.84544687 1.15925613 4.24407631 2.2633455 6.375 4.5625 C8.83671294 7.2445759 8.83671294 7.2445759 12.3125 7.8125 C13.199375 7.874375 14.08625 7.93625 15 8 C15 8.66 15 9.32 15 10 C9.72 10 4.44 10 -1 10 C-1 9.34 -1 8.68 -1 8 C0.65 8 2.3 8 4 8 C3.01 6.576875 3.01 6.576875 2 5.125 C0 2 0 2 0 0 Z " fill="#1D1D1D" transform="translate(729,723)" />
<path d="M0 0 C5.28 0 10.56 0 16 0 C16 0.33 16 0.66 16 1 C13.69 1.33 11.38 1.66 9 2 C8.67 7.94 8.34 13.88 8 20 C8.66 20 9.32 20 10 20 C9.67 20.99 9.34 21.98 9 23 C8.77674186 25.05893621 8.59294241 27.12233653 8.4375 29.1875 C8.35371094 30.27417969 8.26992188 31.36085938 8.18359375 32.48046875 C8.12300781 33.31191406 8.06242188 34.14335938 8 35 C7.67 35 7.34 35 7 35 C6.67 24.11 6.34 13.22 6 2 C3.03 1.505 3.03 1.505 0 1 C0 0.67 0 0.34 0 0 Z " fill="#0B0B0B" transform="translate(703,695)" />
<path d="M0 0 C0.33 0 0.66 0 1 0 C1 3.96 1 7.92 1 12 C5.29 12 9.58 12 14 12 C14 12.66 14 13.32 14 14 C6.74 14 -0.52 14 -8 14 C-8 13.34 -8 12.68 -8 12 C-5.36 12 -2.72 12 0 12 C0 8.04 0 4.08 0 0 Z " fill="#111111" transform="translate(134,719)" />
<path d="M0 0 C0.33 0 0.66 0 1 0 C1.08121924 1.60332791 1.13929134 3.20784026 1.1875 4.8125 C1.23970703 6.15248047 1.23970703 6.15248047 1.29296875 7.51953125 C1 10 1 10 -0.32421875 11.76171875 C-2 13 -2 13 -5 14 C-5.33 15.32 -5.66 16.64 -6 18 C-6.66 18 -7.32 18 -8 18 C-7.67 16.35 -7.34 14.7 -7 13 C-11.29 13 -15.58 13 -20 13 C-20 12.67 -20 12.34 -20 12 C-19.10796875 11.87882813 -18.2159375 11.75765625 -17.296875 11.6328125 C-15.54117188 11.38144531 -15.54117188 11.38144531 -13.75 11.125 C-12.58984375 10.96257813 -11.4296875 10.80015625 -10.234375 10.6328125 C-7.41806687 10.08179569 -5.44782443 9.44203518 -3 8 C-3 8.99 -3 9.98 -3 11 C-0.82892588 9.20334191 -0.82892588 9.20334191 -0.5859375 6.8359375 C-0.51632813 6.02382813 -0.44671875 5.21171875 -0.375 4.375 C-0.30023438 3.55773437 -0.22546875 2.74046875 -0.1484375 1.8984375 C-0.09945312 1.27195312 -0.05046875 0.64546875 0 0 Z " fill="#797979" transform="translate(197,700)" />
<path d="M0 0 C4.62 0 9.24 0 14 0 C17.22265625 5.859375 17.22265625 5.859375 18 8 C17.62109375 10.265625 17.62109375 10.265625 17 12 C17 11.01 17 10.02 17 9 C16.01 9.33 15.02 9.66 14 10 C13.87625 9.030625 13.7525 8.06125 13.625 7.0625 C13.41875 6.051875 13.2125 5.04125 13 4 C12.34 3.67 11.68 3.34 11 3 C11.66 3 12.32 3 13 3 C13 2.34 13 1.68 13 1 C11.68 1.33 10.36 1.66 9 2 C8.67 2.99 8.34 3.98 8 5 C8 4.34 8 3.68 8 3 C5.36 3 2.72 3 0 3 C0 2.01 0 1.02 0 0 Z " fill="#565656" transform="translate(379,694)" />
<path d="M0 0 C0.99 0 1.98 0 3 0 C3.66 1.98 4.32 3.96 5 6 C6.32 6.33 7.64 6.66 9 7 C9 7.66 9 8.32 9 9 C4.05 9 -0.9 9 -6 9 C-6 8.34 -6 7.68 -6 7 C-3.69 7 -1.38 7 1 7 C0.67 4.69 0.34 2.38 0 0 Z " fill="#111111" transform="translate(401,724)" />
<path d="M0 0 C0.66 0.99 1.32 1.98 2 3 C1.67 3.99 1.34 4.98 1 6 C0.67 5.67 0.34 5.34 0 5 C-2.63575543 4.89975874 -5.23954245 4.86124979 -7.875 4.875 C-8.60847656 4.87113281 -9.34195312 4.86726562 -10.09765625 4.86328125 C-13.32433238 4.86915862 -15.91843421 4.9728114 -19 6 C-18.67 4.35 -18.34 2.7 -18 1 C-16.78441406 1.01160156 -15.56882812 1.02320313 -14.31640625 1.03515625 C-12.73177236 1.04453278 -11.14713682 1.05363313 -9.5625 1.0625 C-8.76005859 1.07087891 -7.95761719 1.07925781 -7.13085938 1.08789062 C-5.08704779 1.0965143 -3.04316098 1.0522815 -1 1 C-0.67 0.67 -0.34 0.34 0 0 Z " fill="#1F1F1F" transform="translate(399,716)" />
<path d="M0 0 C5.28 0 10.56 0 16 0 C16 0.33 16 0.66 16 1 C14.35 1.33 12.7 1.66 11 2 C10.67 13.22 10.34 24.44 10 36 C9.67 36 9.34 36 9 36 C8.67 24.78 8.34 13.56 8 2 C5.36 1.67 2.72 1.34 0 1 C0 0.67 0 0.34 0 0 Z " fill="#0B0B0B" transform="translate(582,695)" />
<path d="M0 0 C1.75 0.25 1.75 0.25 4 1 C4.5671875 1.66 5.134375 2.32 5.71875 3 C7.91557762 5.26800229 7.91557762 5.26800229 11.234375 5.609375 C12.39453125 5.65578125 13.5546875 5.7021875 14.75 5.75 C16.50570312 5.83507812 16.50570312 5.83507812 18.296875 5.921875 C19.18890625 5.94765625 20.0809375 5.9734375 21 6 C20.67 6.66 20.34 7.32 20 8 C18.083412 8.02712153 16.1667127 8.04645097 14.25 8.0625 C12.64898438 8.07990234 12.64898438 8.07990234 11.015625 8.09765625 C8.42968299 8.0139146 6.41291688 7.89407188 4 7 C1.75 4.5625 1.75 4.5625 0 2 C0 1.34 0 0.68 0 0 Z " fill="#1A1A1A" transform="translate(668,725)" />
<path d="M0 0 C0.33 0 0.66 0 1 0 C0.54177532 3.46941546 0.10868317 6.67395049 -1 10 C0.98 10 2.96 10 5 10 C5 10.66 5 11.32 5 12 C0.38 12 -4.24 12 -9 12 C-9 11.34 -9 10.68 -9 10 C-7.35 10 -5.7 10 -4 10 C-3.79503906 9.36191406 -3.59007812 8.72382812 -3.37890625 8.06640625 C-3.10949219 7.24011719 -2.84007812 6.41382813 -2.5625 5.5625 C-2.16224609 4.32693359 -2.16224609 4.32693359 -1.75390625 3.06640625 C-1 1 -1 1 0 0 Z " fill="#1B1B1B" transform="translate(214,721)" />
<path d="M0 0 C0.66 0 1.32 0 2 0 C2.02708567 1.60407328 2.04643483 3.2082785 2.0625 4.8125 C2.07410156 5.70582031 2.08570313 6.59914063 2.09765625 7.51953125 C2 10 2 10 1 13 C-5.27 13 -11.54 13 -18 13 C-18 12.67 -18 12.34 -18 12 C-12.39 12 -6.78 12 -1 12 C-0.67 8.04 -0.34 4.08 0 0 Z " fill="#070707" transform="translate(611,720)" />
<path d="M0 0 C4.62 0 9.24 0 14 0 C14 0.33 14 0.66 14 1 C10.37 1 6.74 1 3 1 C3 4.63 3 8.26 3 12 C2.01 12 1.02 12 0 12 C0 8.04 0 4.08 0 0 Z " fill="#272727" transform="translate(415,695)" />
<path d="M0 0 C4.62 0 9.24 0 14 0 C14.66 1.65 15.32 3.3 16 5 C15.34 5 14.68 5 14 5 C13.67 5.66 13.34 6.32 13 7 C12.67 5.35 12.34 3.7 12 2 C11.01 2 10.02 2 9 2 C9 3.65 9 5.3 9 7 C8.01 7.495 8.01 7.495 7 8 C7.33 6.35 7.66 4.7 8 3 C5.36 3 2.72 3 0 3 C0 2.01 0 1.02 0 0 Z " fill="#5E5E5E" transform="translate(213,694)" />
<path d="M0 0 C4.95 0 9.9 0 15 0 C15 0.99 15 1.98 15 3 C9.43842552 3.91457003 5.324335 4.32086397 0 2 C0 1.34 0 0.68 0 0 Z " fill="#3A3A3A" transform="translate(726,694)" />
<path d="M0 0 C2.475 0.99 2.475 0.99 5 2 C5.08121924 3.60332791 5.13929134 5.20784026 5.1875 6.8125 C5.22230469 7.70582031 5.25710937 8.59914063 5.29296875 9.51953125 C5 12 5 12 3.48828125 13.82421875 C2.75158203 14.40623047 2.75158203 14.40623047 2 15 C1.34 14.67 0.68 14.34 0 14 C0.33 13.67 0.66 13.34 1 13 C1.09886353 11.37747508 1.12971167 9.75052727 1.125 8.125 C1.12757813 7.24070312 1.13015625 6.35640625 1.1328125 5.4453125 C1.10048585 2.86093709 1.10048585 2.86093709 0 0 Z " fill="#111111" transform="translate(192,697)" />
<path d="M0 0 C-0.99 1.32 -1.98 2.64 -3 4 C-3 3.01 -3 2.02 -3 1 C-10.59 1 -18.18 1 -26 1 C-26 1.99 -26 2.98 -26 4 C-26.66 4 -27.32 4 -28 4 C-28 2.68 -28 1.36 -28 0 C-23.89621612 -0.19660714 -19.79196562 -0.3807276 -15.6875 -0.5625 C-14.52025391 -0.61857422 -13.35300781 -0.67464844 -12.15039062 -0.73242188 C-11.03212891 -0.78076172 -9.91386719 -0.82910156 -8.76171875 -0.87890625 C-7.2142395 -0.94960327 -7.2142395 -0.94960327 -5.63549805 -1.02172852 C-3 -1 -3 -1 0 0 Z " fill="#E1E1E1" transform="translate(284,693)" />
<path d="M0 0 C0.66 0 1.32 0 2 0 C2.2475 0.94875 2.495 1.8975 2.75 2.875 C3.68953748 5.98642787 3.68953748 5.98642787 5.6875 7.3125 C8.76127974 8.22632641 11.81907471 8.63297016 15 9 C15 9.33 15 9.66 15 10 C13.06318839 10.08107583 11.1254066 10.13922475 9.1875 10.1875 C8.10855469 10.22230469 7.02960938 10.25710938 5.91796875 10.29296875 C3 10 3 10 1.125 8.71875 C0 7 0 7 -0.1875 3.3125 C-0.125625 2.219375 -0.06375 1.12625 0 0 Z " fill="#212121" transform="translate(250,723)" />
<path d="M0 0 C-2.90633161 2.08533398 -4.72960801 2.97622579 -8.33203125 3.29296875 C-9.48058594 3.25816406 -10.62914062 3.22335937 -11.8125 3.1875 C-13.55466797 3.14689453 -13.55466797 3.14689453 -15.33203125 3.10546875 C-16.21246094 3.07066406 -17.09289062 3.03585937 -18 3 C-18 2.01 -18 1.02 -18 0 C-15.75067773 -0.1954625 -13.50049858 -0.38108226 -11.25 -0.5625 C-9.99703125 -0.66691406 -8.7440625 -0.77132812 -7.453125 -0.87890625 C-4.60547636 -0.97876723 -2.65713933 -0.90584295 0 0 Z " fill="#323232" transform="translate(361,713)" />
<path d="M0 0 C0.66 0 1.32 0 2 0 C2.86355778 1.95421035 3.71559934 3.91351347 4.5625 5.875 C5.27599609 7.51082031 5.27599609 7.51082031 6.00390625 9.1796875 C6.33261719 10.11039063 6.66132813 11.04109375 7 12 C6.67 12.66 6.34 13.32 6 14 C5.01 14 4.02 14 3 14 C2.49307308 12.4188708 1.99473557 10.83498617 1.5 9.25 C1.2215625 8.36828125 0.943125 7.4865625 0.65625 6.578125 C0 4 0 4 0 0 Z " fill="#282828" transform="translate(227,699)" />
<path d="M0 0 C6.93 0 13.86 0 21 0 C21 0.33 21 0.66 21 1 C15.06 1.495 15.06 1.495 9 2 C8.67 6.62 8.34 11.24 8 16 C7.67 16 7.34 16 7 16 C6.67 11.38 6.34 6.76 6 2 C3.03 1.505 3.03 1.505 0 1 C0 0.67 0 0.34 0 0 Z " fill="#0A0A0A" transform="translate(127,695)" />
<path d="M0 0 C0.66 0 1.32 0 2 0 C1.67 1.32 1.34 2.64 1 4 C-3.95 4.33 -8.9 4.66 -14 5 C-14 4.01 -14 3.02 -14 2 C-9.38 2 -4.76 2 0 2 C0 1.34 0 0.68 0 0 Z " fill="#D0D0D0" transform="translate(219,731)" />
<path d="M0 0 C0.66 0.33 1.32 0.66 2 1 C3.32284828 3.57607297 4.08216274 5.28107598 3.75 8.1875 C3 10 3 10 1 12 C-1.875 5.375 -1.875 5.375 -3 2 C-2.01 2 -1.02 2 0 2 C0 1.34 0 0.68 0 0 Z " fill="#4D4D4D" transform="translate(310,696)" />
<path d="M0 0 C3.96 0 7.92 0 12 0 C12 0.66 12 1.32 12 2 C11.34 2 10.68 2 10 2 C9.87625 2.7425 9.7525 3.485 9.625 4.25 C9.04513299 6.80141485 8.26291261 8.7267573 7 11 C6.67 11 6.34 11 6 11 C5.82057837 7.05272412 5.90649311 4.4019487 8 1 C5.36 1 2.72 1 0 1 C0 0.67 0 0.34 0 0 Z " fill="#242424" transform="translate(380,695)" />
<path d="M0 0 C1.16402344 0.10054687 1.16402344 0.10054687 2.3515625 0.203125 C3.01929688 0.38359375 3.68703125 0.5640625 4.375 0.75 C5.035 1.74 5.695 2.73 6.375 3.75 C3.34449115 4.66330404 0.89531431 4.81558338 -2.25 4.5 C-3.41402344 4.39945313 -3.41402344 4.39945313 -4.6015625 4.296875 C-5.60316406 4.02617188 -5.60316406 4.02617188 -6.625 3.75 C-7.285 2.76 -7.945 1.77 -8.625 0.75 C-5.59449115 -0.16330404 -3.14531431 -0.31558338 0 0 Z " fill="#575757" transform="translate(683.625,693.25)" />
<path d="M0 0 C0.66 0.99 1.32 1.98 2 3 C4.56282742 3.72965366 4.56282742 3.72965366 7 4 C7 4.66 7 5.32 7 6 C2.05 6 -2.9 6 -8 6 C-8 5.34 -8 4.68 -8 4 C-5.36 4 -2.72 4 0 4 C0 2.68 0 1.36 0 0 Z " fill="#161616" transform="translate(320,727)" />
<path d="M0 0 C2.26684656 0.39083561 3.77212473 0.82909355 5.625 2.21875 C7 4 7 4 7.29296875 6.48046875 C7.25816406 7.37378906 7.22335938 8.26710938 7.1875 9.1875 C7.16042969 10.08855469 7.13335937 10.98960937 7.10546875 11.91796875 C7.07066406 12.60503906 7.03585938 13.29210937 7 14 C6.34 14 5.68 14 5 14 C4.97421875 13.38511719 4.9484375 12.77023437 4.921875 12.13671875 C4.75062234 9.69636837 4.53143476 7.38933068 4 5 C2.08261145 3.03712176 2.08261145 3.03712176 0 2 C0 1.34 0 0.68 0 0 Z " fill="#181818" transform="translate(149,696)" />
<path d="M0 0 C0.33 0 0.66 0 1 0 C1 1.65 1 3.3 1 5 C2.98 5 4.96 5 7 5 C7 5.66 7 6.32 7 7 C2.71 7 -1.58 7 -6 7 C-6 6.34 -6 5.68 -6 5 C-4.35 5 -2.7 5 -1 5 C-0.67 3.35 -0.34 1.7 0 0 Z " fill="#111111" transform="translate(295,726)" />
<path d="M0 0 C1.26328125 0.02707031 2.5265625 0.05414062 3.828125 0.08203125 C4.79234375 0.11683594 5.7565625 0.15164063 6.75 0.1875 C6.75 0.5175 6.75 0.8475 6.75 1.1875 C3.45 1.1875 0.15 1.1875 -3.25 1.1875 C-3.25 1.8475 -3.25 2.5075 -3.25 3.1875 C-4.9 3.8475 -6.55 4.5075 -8.25 5.1875 C-9.24 4.5275 -10.23 3.8675 -11.25 3.1875 C-7.67487951 -0.25219926 -4.83224625 -0.13422906 0 0 Z " fill="#333333" transform="translate(680.25,694.8125)" />
<path d="M0 0 C0.66 0.33 1.32 0.66 2 1 C-0.26738901 3.02617742 -1.64808429 3.94790217 -4.69140625 4.3984375 C-5.63886719 4.39070312 -6.58632813 4.38296875 -7.5625 4.375 C-8.51253906 4.38273438 -9.46257813 4.39046875 -10.44140625 4.3984375 C-13 4 -13 4 -14.83984375 2.4765625 C-15.22269531 1.98929688 -15.60554687 1.50203125 -16 1 C-15.09636719 1.01160156 -14.19273437 1.02320313 -13.26171875 1.03515625 C-11.49248047 1.04869141 -11.49248047 1.04869141 -9.6875 1.0625 C-8.51574219 1.07410156 -7.34398437 1.08570313 -6.13671875 1.09765625 C-2.96940805 1.14899898 -2.96940805 1.14899898 0 0 Z " fill="#B3B3B3" transform="translate(566,731)" />
<path d="M0 0 C0.33 0 0.66 0 1 0 C1.33 3.63 1.66 7.26 2 11 C0.68 11.99 -0.64 12.98 -2 14 C-2.99 13.67 -3.98 13.34 -5 13 C-5 12.01 -5 11.02 -5 10 C-3.68 9.34 -2.36 8.68 -1 8 C-0.67 5.36 -0.34 2.72 0 0 Z " fill="#4B4B4B" transform="translate(153,701)" />
<path d="M0 0 C2.45823172 3.68734758 3.01242616 6.69699971 4 11 C0.33333333 11 -3.33333333 11 -7 11 C-7 10.67 -7 10.34 -7 10 C-5.02 10 -3.04 10 -1 10 C-1.0309375 8.9171875 -1.0309375 8.9171875 -1.0625 7.8125 C-1.00179441 5.08074862 -0.60741465 2.65743909 0 0 Z " fill="#5C5C5C" transform="translate(319,720)" />
<path d="M0 0 C3.19902639 -0.08886184 5.92677456 0.08941469 9 1 C9 1.66 9 2.32 9 3 C6.29283758 3.90238747 4.76223232 4.11851302 1.98828125 4.09765625 C0.85229492 4.09282227 0.85229492 4.09282227 -0.30664062 4.08789062 C-1.09232422 4.07951172 -1.87800781 4.07113281 -2.6875 4.0625 C-3.48478516 4.05798828 -4.28207031 4.05347656 -5.10351562 4.04882812 C-7.06904257 4.0370585 -9.03453085 4.01912348 -11 4 C-11 3.67 -11 3.34 -11 3 C-6.05 3 -1.1 3 4 3 C4 2.34 4 1.68 4 1 C2.68 0.67 1.36 0.34 0 0 Z " fill="#C4C4C4" transform="translate(323,730)" />
<path d="M0 0 C0.99 0 1.98 0 3 0 C2.8125 2.1875 2.8125 2.1875 2 5 C-0.5625 7.8125 -0.5625 7.8125 -3 10 C-3 9.34 -3 8.68 -3 8 C-3.66 7.67 -4.32 7.34 -5 7 C-4.0409375 6.6596875 -4.0409375 6.6596875 -3.0625 6.3125 C-2.381875 5.879375 -1.70125 5.44625 -1 5 C-0.18828772 2.44480079 -0.18828772 2.44480079 0 0 Z " fill="#323232" transform="translate(570,721)" />
<path d="M0 0 C0.75410156 0.00451172 1.50820313 0.00902344 2.28515625 0.01367188 C4.14847127 0.02546501 6.01174555 0.04340058 7.875 0.0625 C8.205 1.7125 8.535 3.3625 8.875 5.0625 C8.215 4.0725 7.555 3.0825 6.875 2.0625 C3.75889446 1.47657366 3.75889446 1.47657366 0.25 1.375 C-0.93851562 1.30925781 -2.12703125 1.24351562 -3.3515625 1.17578125 C-4.26679688 1.13839844 -5.18203125 1.10101562 -6.125 1.0625 C-6.125 1.7225 -6.125 2.3825 -6.125 3.0625 C-7.115 3.0625 -8.105 3.0625 -9.125 3.0625 C-9.455 3.7225 -9.785 4.3825 -10.125 5.0625 C-10.125 3.7425 -10.125 2.4225 -10.125 1.0625 C-6.93675432 -0.53162284 -3.49603338 -0.03924735 0 0 Z " fill="#B2B2B2" transform="translate(391.125,719.9375)" />
<path d="M0 0 C0.33 0 0.66 0 1 0 C1.71855863 2.59786582 2.13474334 4.3436312 2 7 C0.64049754 10.20599087 -1.09369361 13.0910688 -3 16 C-3.62109375 14.390625 -3.62109375 14.390625 -4 12 C-3.22265625 8.984375 -3.22265625 8.984375 -2.0625 5.75 C-1.68222656 4.67234375 -1.30195313 3.5946875 -0.91015625 2.484375 C-0.45962891 1.25460937 -0.45962891 1.25460937 0 0 Z " fill="#9D9D9D" transform="translate(399,266)" />
<path d="M0 0 C2.09721098 3.14581646 3.05667086 5.8408918 4.1875 9.4375 C4.55230469 10.57058594 4.91710937 11.70367188 5.29296875 12.87109375 C5.96248932 15.8339997 6.07236414 17.22004965 5 20 C4.35309078 18.3962669 3.70751236 16.79199694 3.0625 15.1875 C2.52302734 13.84751953 2.52302734 13.84751953 1.97265625 12.48046875 C0.24707943 8.07990136 -0.08922893 4.7291332 0 0 Z " fill="#C6C6C6" transform="translate(497,562)" />
<path d="M0 0 C5.94 0 11.88 0 18 0 C18 0.33 18 0.66 18 1 C16.57107422 1.03867187 16.57107422 1.03867187 15.11328125 1.078125 C13.85902344 1.13484375 12.60476563 1.1915625 11.3125 1.25 C10.07113281 1.29640625 8.82976562 1.3428125 7.55078125 1.390625 C3.58408325 2.07137845 1.87295664 3.25338754 -1 6 C-0.67 4.02 -0.34 2.04 0 0 Z " fill="#E8E8E8" transform="translate(331,481)" />
<path d="M0 0 C0.33 0.99 0.66 1.98 1 3 C2.65 3.33 4.3 3.66 6 4 C6 4.33 6 4.66 6 5 C1.38 5 -3.24 5 -8 5 C-8 4.34 -8 3.68 -8 3 C-5.36 3 -2.72 3 0 3 C0 2.01 0 1.02 0 0 Z " fill="#131313" transform="translate(237,728)" />
<path d="M0 0 C0.33 0.66 0.66 1.32 1 2 C1.66 2 2.32 2 3 2 C3.66 4.97 4.32 7.94 5 11 C4.34 11.66 3.68 12.32 3 13 C-0.42857143 4.57142857 -0.42857143 4.57142857 0 0 Z " fill="#181818" transform="translate(312,704)" />
<path d="M0 0 C0.33 0 0.66 0 1 0 C1 3.63 1 7.26 1 11 C0.34 11 -0.32 11 -1 11 C-2.06775224 9.03533587 -3.06553465 7.03144641 -4 5 C-3.67 4.34 -3.34 3.68 -3 3 C-2.01 3.33 -1.02 3.66 0 4 C0 2.68 0 1.36 0 0 Z " fill="#161616" transform="translate(695,695)" />
<path d="M0 0 C0 0.66 0 1.32 0 2 C0.66 2.33 1.32 2.66 2 3 C0.37585622 3.19477739 -1.24936423 3.38059458 -2.875 3.5625 C-3.77992188 3.66691406 -4.68484375 3.77132812 -5.6171875 3.87890625 C-8 4 -8 4 -10 3 C-10 2.34 -10 1.68 -10 1 C-6.59437148 0.22157062 -3.49234244 -0.09978121 0 0 Z " fill="#393939" transform="translate(560,693)" />
<path d="M0 0 C0.33 0 0.66 0 1 0 C1 4.29 1 8.58 1 13 C-0.98 13.66 -2.96 14.32 -5 15 C-5 13.68 -5 12.36 -5 11 C-3.35 11.33 -1.7 11.66 0 12 C0 8.04 0 4.08 0 0 Z " fill="#D8D8D8" transform="translate(697,695)" />
<path d="M0 0 C3.96 0 7.92 0 12 0 C11.34 2.31 10.68 4.62 10 7 C9.34 7 8.68 7 8 7 C8 5.02 8 3.04 8 1 C5.36 1 2.72 1 0 1 C0 0.67 0 0.34 0 0 Z " fill="#1B1B1B" transform="translate(214,695)" />
<path d="M0 0 C0.66 0.66 1.32 1.32 2 2 C2.66 1.34 3.32 0.68 4 0 C4 3.96 4 7.92 4 12 C1 9 1 9 0.48828125 6.73828125 C0.43027344 5.93777344 0.37226562 5.13726562 0.3125 4.3125 C0.24675781 3.50425781 0.18101562 2.69601562 0.11328125 1.86328125 C0.07589844 1.24839844 0.03851562 0.63351562 0 0 Z " fill="#A3A3A3" transform="translate(559,435)" />
<path d="M0 0 C6.93 0 13.86 0 21 0 C21 0.33 21 0.66 21 1 C20.15695312 1.04898438 19.31390625 1.09796875 18.4453125 1.1484375 C17.34960938 1.22320313 16.25390625 1.29796875 15.125 1.375 C13.48917969 1.47941406 13.48917969 1.47941406 11.8203125 1.5859375 C10.42425781 1.79089844 10.42425781 1.79089844 9 2 C8.34 2.66 7.68 3.32 7 4 C6.67 3.34 6.34 2.68 6 2 C2.97065509 1.34227572 2.97065509 1.34227572 0 1 C0 0.67 0 0.34 0 0 Z " fill="#0E0E0E" transform="translate(334,695)" />
<path d="M0 0 C0.66 0 1.32 0 2 0 C2.53122363 1.76774419 3.04964073 3.53934083 3.5625 5.3125 C3.85253906 6.29863281 4.14257812 7.28476562 4.44140625 8.30078125 C5 11 5 11 4 14 C1.44640937 10.16961406 0.0761318 6.75103148 -0.125 2.125 C-0.08375 1.42375 -0.0425 0.7225 0 0 Z " fill="#616161" transform="translate(422,288)" />
<path d="M0 0 C0.33 0 0.66 0 1 0 C1.33 4.62 1.66 9.24 2 14 C1.34 14 0.68 14 0 14 C0 13.01 0 12.02 0 11 C-0.66 11 -1.32 11 -2 11 C-2 9.35 -2 7.7 -2 6 C-1.67 6 -1.34 6 -1 6 C-0.67 4.02 -0.34 2.04 0 0 Z " fill="#363636" transform="translate(666,710)" />
<path d="M0 0 C0.66 0 1.32 0 2 0 C2.66 2.97 3.32 5.94 4 9 C3.34 8.34 2.68 7.68 2 7 C2 6.01 2 5.02 2 4 C1.34 4 0.68 4 0 4 C-0.66 5.65 -1.32 7.3 -2 9 C-2.33 8.34 -2.66 7.68 -3 7 C-2.06421005 4.64018187 -1.06652192 2.30368736 0 0 Z " fill="#9E9E9E" transform="translate(390,698)" />
<path d="M0 0 C0.33 0.99 0.66 1.98 1 3 C-0.11375 3.433125 -0.11375 3.433125 -1.25 3.875 C-3.56739797 4.82302644 -5.77917115 5.84845911 -8 7 C-7.25 4.625 -7.25 4.625 -6 2 C-3.82419059 0.57212508 -2.5999945 0 0 0 Z " fill="#D9D9D9" transform="translate(677,698)" />
<path d="M0 0 C2.22606025 3.33909037 3.11033078 6.09914263 4 10 C3.625 12.4375 3.625 12.4375 3 14 C2.34 14 1.68 14 1 14 C0.67 9.38 0.34 4.76 0 0 Z " fill="#BCBCBC" transform="translate(441,371)" />
<path d="M0 0 C2.24222224 1.83454547 3.09712649 3.22824724 4.25 5.9375 C5 9 5 9 4 13 C3.34 10.03 2.68 7.06 2 4 C1.34 4 0.68 4 0 4 C0 4.66 0 5.32 0 6 C-0.66 6 -1.32 6 -2 6 C-1.34 4.02 -0.68 2.04 0 0 Z " fill="#B9B9B9" transform="translate(404,255)" />
<path d="M0 0 C2 3 2 3 3 6 C4.32 6.33 5.64 6.66 7 7 C7 7.66 7 8.32 7 9 C4.36 9 1.72 9 -1 9 C-0.835 8.2575 -0.67 7.515 -0.5 6.75 C0.11925696 3.80993422 0.11925696 3.80993422 0 0 Z " fill="#2B2B2B" transform="translate(403,724)" />
<path d="M0 0 C0.33 1.32 0.66 2.64 1 4 C1.66 4 2.32 4 3 4 C2.67 4.99 2.34 5.98 2 7 C1.77674186 9.05893621 1.59294241 11.12233653 1.4375 13.1875 C1.35371094 14.27417969 1.26992188 15.36085938 1.18359375 16.48046875 C1.12300781 17.31191406 1.06242188 18.14335938 1 19 C0.67 19 0.34 19 0 19 C0 12.73 0 6.46 0 0 Z " fill="#050505" transform="translate(710,711)" />
<path d="M0 0 C1.56430248 3.12860495 1.35627284 5.55602925 1 9 C-1.5 11.4375 -1.5 11.4375 -4 13 C-3.52511102 11.01980257 -3.04497141 9.04086365 -2.5625 7.0625 C-2.29566406 5.96035156 -2.02882813 4.85820312 -1.75390625 3.72265625 C-1 1 -1 1 0 0 Z " fill="#5E5E5E" transform="translate(384,182)" />
<path d="M0 0 C0.99 0.33 1.98 0.66 3 1 C3.66 3.31 4.32 5.62 5 8 C3.515 8.99 3.515 8.99 2 10 C0.68373308 6.38026598 0 3.90432869 0 0 Z " fill="#3C3C3C" transform="translate(190,717)" />
<path d="M0 0 C0.66 0.66 1.32 1.32 2 2 C4.36509361 2.30059943 6.74441881 2.49515012 9.125 2.625 C11.04699219 2.73714844 11.04699219 2.73714844 13.0078125 2.8515625 C14.48894531 2.92503906 14.48894531 2.92503906 16 3 C16 3.33 16 3.66 16 4 C7.585 4.495 7.585 4.495 -1 5 C-0.67 3.35 -0.34 1.7 0 0 Z " fill="#0D0D0D" transform="translate(216,715)" />
<path d="M0 0 C0.66 0.66 1.32 1.32 2 2 C2.26991906 4.68839385 2.08737357 7.29141936 2 10 C0.68 10.33 -0.64 10.66 -2 11 C-1.34 7.37 -0.68 3.74 0 0 Z " fill="#101010" transform="translate(361,701)" />
<path d="M0 0 C2.64 0.33 5.28 0.66 8 1 C8 1.66 8 2.32 8 3 C5.03 4.98 5.03 4.98 2 7 C1.67 6.01 1.34 5.02 1 4 C1.66 3.01 2.32 2.02 3 1 C2.01 0.67 1.02 0.34 0 0 Z " fill="#555555" transform="translate(727,696)" />
<path d="M0 0 C2.22606025 3.33909037 3.11033078 6.09914263 4 10 C3.625 12.4375 3.625 12.4375 3 14 C0.56574762 9.03006806 -0.34615998 5.65394631 0 0 Z " fill="#717171" transform="translate(470,445)" />
<path d="M0 0 C1.8125 0.25 1.8125 0.25 4 1 C5.75 3.0625 5.75 3.0625 7 5 C6.67 5.66 6.34 6.32 6 7 C5.34 7 4.68 7 4 7 C1.875 4.625 1.875 4.625 0 2 C0 1.34 0 0.68 0 0 Z " fill="#393939" transform="translate(668,725)" />
<path d="M0 0 C0.66 0 1.32 0 2 0 C1.67 3.96 1.34 7.92 1 12 C-1 9 -1 9 -1.1875 5.4375 C-1 2 -1 2 0 0 Z " fill="#121212" transform="translate(665,707)" />
<path d="M0 0 C-1.55500981 3.81684226 -4.03595495 6.19195732 -7 9 C-6.37315423 6.07471973 -5.51695295 3.58774327 -4 1 C-2 0 -2 0 0 0 Z " fill="#1A1A1A" transform="translate(549,697)" />
<path d="M0 0 C5.28 0 10.56 0 16 0 C16 0.33 16 0.66 16 1 C14.824375 1.1546875 14.824375 1.1546875 13.625 1.3125 C12.325625 1.6528125 12.325625 1.6528125 11 2 C10.01 3.485 10.01 3.485 9 5 C8.67 4.01 8.34 3.02 8 2 C5.36 1.67 2.72 1.34 0 1 C0 0.67 0 0.34 0 0 Z " fill="#0F0F0F" transform="translate(582,695)" />
<path d="M0 0 C2 0.9375 2 0.9375 4 3 C4.36475845 6.02534949 4.22893297 8.96663814 4 12 C2.09681116 9.14521674 1.5380901 7.58058692 0.875 4.3125 C0.70742188 3.50425781 0.53984375 2.69601562 0.3671875 1.86328125 C0.24601563 1.24839844 0.12484375 0.63351562 0 0 Z " fill="#999999" transform="translate(533,359)" />
<path d="M0 0 C1.3770046 3.82501277 0.65644615 7.06132308 0 11 C0 11.66 0 12.32 0 13 C-0.99 13 -1.98 13 -3 13 C-2.52060632 8.28596212 -2.03165952 4.33420699 0 0 Z " fill="#575757" transform="translate(417,83)" />
<path d="M0 0 C1.2380014 3.57644848 0.74926071 6.33694766 0 10 C-3 10 -3 10 -5 9 C-4.360625 8.071875 -3.72125 7.14375 -3.0625 6.1875 C-0.91377907 3.15780057 -0.91377907 3.15780057 0 0 Z " fill="#C9C9C9" transform="translate(573,721)" />
<path d="M0 0 C0.66 0 1.32 0 2 0 C4 3 4 3 4.125 5.6875 C4.08375 6.450625 4.0425 7.21375 4 8 C2 6.25 2 6.25 0 4 C0 2.68 0 1.36 0 0 Z " fill="#272727" transform="translate(542,721)" />
<path d="M0 0 C0.33 0.99 0.66 1.98 1 3 C2.32 3 3.64 3 5 3 C4.67 4.32 4.34 5.64 4 7 C3.01 7.33 2.02 7.66 1 8 C0.67 5.36 0.34 2.72 0 0 Z " fill="#F0F0F0" transform="translate(168,694)" />
<path d="M0 0 C1.65 1.65 3.3 3.3 5 5 C4.01 5.66 3.02 6.32 2 7 C1.01 5.68 0.02 4.36 -1 3 C-0.67 2.01 -0.34 1.02 0 0 Z " fill="#4C4C4C" transform="translate(726,717)" />
<path d="M0 0 C0.99 0.33 1.98 0.66 3 1 C2.34 3.31 1.68 5.62 1 8 C0.34 8 -0.32 8 -1 8 C-0.67 5.36 -0.34 2.72 0 0 Z " fill="#262626" transform="translate(304,699)" />
<path d="M0 0 C0.6875 1.625 0.6875 1.625 1 4 C-0.4375 7.25 -0.4375 7.25 -2 10 C-2.33 10 -2.66 10 -3 10 C-3.125 4.25 -3.125 4.25 -2 2 C-1.34 2 -0.68 2 0 2 C0 1.34 0 0.68 0 0 Z " fill="#ABABAB" transform="translate(257,562)" />
<path d="M0 0 C0.66 0 1.32 0 2 0 C2 3.3 2 6.6 2 10 C-0.13262124 6.80106814 -0.59021548 4.77001757 -1 1 C-0.67 0.67 -0.34 0.34 0 0 Z " fill="#E9E9E9" transform="translate(498,247)" />
<path d="M0 0 C1.32 0.33 2.64 0.66 4 1 C4.33 2.65 4.66 4.3 5 6 C4.01 6 3.02 6 2 6 C0 3 0 3 0 0 Z " fill="#4A4A4A" transform="translate(229,707)" />
<path d="M0 0 C3.96 0 7.92 0 12 0 C12 0.66 12 1.32 12 2 C11.34 2 10.68 2 10 2 C9.67 2.66 9.34 3.32 9 4 C8.67 3.34 8.34 2.68 8 2 C5.36 1.67 2.72 1.34 0 1 C0 0.67 0 0.34 0 0 Z " fill="#0E0E0E" transform="translate(380,695)" />
<path d="M0 0 C0.66 0 1.32 0 2 0 C0.25 7.625 0.25 7.625 -2 11 C-2.19622241 6.78121808 -1.80230168 3.82989106 0 0 Z " fill="#3B3B3B" transform="translate(329,483)" />
<path d="M0 0 C1.45703125 1.17578125 1.45703125 1.17578125 3 3 C3.51171875 5.48046875 3.51171875 5.48046875 3.6875 8.1875 C3.75324219 9.08855469 3.81898438 9.98960937 3.88671875 10.91796875 C3.92410156 11.60503906 3.96148437 12.29210937 4 13 C1.99706653 9.99559979 1.50728374 8.29006055 0.875 4.8125 C0.70742188 3.91144531 0.53984375 3.01039063 0.3671875 2.08203125 C0.24601562 1.39496094 0.12484375 0.70789063 0 0 Z " fill="#D9D9D9" transform="translate(457,401)" />
<path d="M0 0 C0.82810826 3.31243305 1.09278428 5.65976579 1 9 C-0.98 9.99 -0.98 9.99 -3 11 C-2.01 7.37 -1.02 3.74 0 0 Z " fill="#363636" transform="translate(327,353)" />
<path d="M0 0 C2 3 2 3 2 5 C2.66 5 3.32 5 4 5 C4 7.31 4 9.62 4 12 C3 10 3 10 2 8 C1.62875 7.34 1.2575 6.68 0.875 6 C0 4 0 4 0 0 Z " fill="#6A6A6A" transform="translate(433,345)" />
<path d="M0 0 C2.475 0.99 2.475 0.99 5 2 C4.34 4.97 3.68 7.94 3 11 C2.67 11 2.34 11 2 11 C1.34 7.37 0.68 3.74 0 0 Z " fill="#303030" transform="translate(192,697)" />
<path d="M0 0 C0.33 1.32 0.66 2.64 1 4 C0.01 4.99 -0.98 5.98 -2 7 C-2.33 5.68 -2.66 4.36 -3 3 C-2.01 2.01 -1.02 1.02 0 0 Z " fill="#050505" transform="translate(435,334)" />
</svg>
